<svg width="129" height="196" viewBox="0 0 129 196" fill="none" xmlns="http://www.w3.org/2000/svg">
<path fill-rule="evenodd" clip-rule="evenodd" d="M90.9615 177.758C83.9659 181.409 72.3207 184.078 62.9472 184.004C53.5289 184.051 41.9106 181.396 34.9157 177.728C32.0608 176.227 29.5138 174.084 29.332 171.009C26.0805 123.676 26.0759 64.0316 29.3865 16.6548C29.6183 13.5916 31.9963 10.7497 35.0209 9.91767C44.2401 7.40537 53.654 6.05712 63.0499 6.07041C72.4458 6.0837 81.8462 7.39814 91.0667 9.9477C94.1457 10.8451 96.4686 13.5921 96.7118 16.6887C99.9409 64.0819 99.9455 123.726 96.5959 171.021C96.3417 174.144 93.819 176.251 90.9615 177.758Z" fill="url(#paint0_linear_6051_28082)"/>
<path d="M49.1686 178.727C48.4976 179.034 48.2063 179.819 48.5802 180.5L49.1161 181.308C49.2947 181.577 49.5572 181.807 49.9484 181.879C54.2907 182.75 58.8289 183.281 62.9484 183.252C67.0455 183.282 71.551 182.776 75.9004 181.939C76.2749 181.868 76.549 181.693 76.7225 181.413L77.243 180.573C77.6125 179.953 77.3672 179.113 76.7135 178.81C76.5291 178.744 76.4062 178.7 76.1994 178.695L49.6661 178.7C49.5041 178.574 49.3364 178.65 49.1686 178.727Z" fill="url(#paint1_linear_6051_28082)"/>
<path d="M96.059 114.757L101.927 111.831C102.536 111.498 103.04 111.814 102.913 112.524C102.5 116.771 101.18 118.635 97.3261 119.875C96.6178 120.104 95.831 119.619 95.714 118.822L95.4293 115.7C95.5043 115.315 95.724 114.913 96.059 114.757Z" fill="#5D3CF2"/>
<path d="M102.945 112.06C102.792 111.73 102.425 111.6 101.983 111.855L96.1063 114.785C95.7709 114.941 95.5508 115.344 95.5368 115.751L102.945 112.06Z" fill="#FD5631"/>
<path d="M29.8989 114.696L24.0251 111.852C23.4354 111.574 22.9088 111.869 23.0104 112.525C23.3607 116.779 24.6818 118.626 28.4629 119.831C29.1978 120.092 30.0218 119.558 30.0882 118.825L30.4221 115.708C30.4588 115.239 30.2436 114.887 29.8989 114.696Z" fill="#5D3CF2"/>
<path d="M23.0226 112.06C23.1594 111.694 23.5348 111.62 24.0032 111.856L29.892 114.716C30.2376 114.908 30.4534 115.262 30.4394 115.673L23.0226 112.06Z" fill="#FD5631"/>
<path d="M95.246 89.487C95.2993 73.0222 94.7712 56.6229 93.8468 39.6028C93.7425 37.4451 92.0285 35.1214 89.7991 34.1862C72.3884 27.0621 53.7419 27.0192 36.2574 34.1638C34.0376 35.0788 32.3588 37.3503 32.2339 39.5627C31.2522 56.6525 30.7072 72.9412 30.7154 89.428C30.7108 101.259 30.9969 113.058 31.4617 125.125C31.566 127.283 33.1961 129.645 35.4255 130.58C53.3222 138.083 72.5276 138.121 90.4148 130.642C92.6346 129.727 94.3358 127.395 94.4607 125.183C94.9685 113.122 95.2414 101.318 95.246 89.487Z" fill="url(#paint2_linear_6051_28082)"/>
<path d="M95.246 89.487C95.2993 73.0222 94.7712 56.6229 93.8468 39.6028C93.7425 37.4451 92.0285 35.1214 89.7991 34.1862C72.3884 27.0621 53.7419 27.0192 36.2574 34.1638C34.0376 35.0788 32.3588 37.3503 32.2339 39.5627C31.2522 56.6525 30.7072 72.9412 30.7154 89.428C30.7108 101.259 30.9969 113.058 31.4617 125.125C31.566 127.283 33.1961 129.645 35.4255 130.58C53.3222 138.083 72.5276 138.121 90.4148 130.642C92.6346 129.727 94.3358 127.395 94.4607 125.183C94.9685 113.122 95.2414 101.318 95.246 89.487Z" fill="#1F1B2D"/>
<path opacity="0.5" d="M78.0272 179.213C79.3186 178.923 80.571 178.551 81.801 178.239L85.999 132.411C84.6851 132.761 78.0272 179.213 78.0272 179.213ZM40.0143 132.29L44.0944 178.142C45.3461 178.521 46.5587 178.819 47.8943 179.16C47.8943 179.16 41.2436 132.731 40.0143 132.29Z" fill="#FD5631"/>
<path d="M93.0664 88.984C93.0685 73.5953 92.6287 58.4587 91.7146 42.5367C91.6269 40.5217 90.0525 38.3848 87.946 37.4936C71.6807 30.8481 54.3365 30.8612 38.0878 37.4907C36.0357 38.329 34.4632 40.5018 34.3441 42.511C33.397 58.3821 32.9647 73.6168 32.9236 88.9232C32.942 99.9418 33.1673 110.966 33.6161 122.139C33.7038 124.154 35.2557 126.351 37.3622 127.242C53.9905 134.223 71.8713 134.265 88.5451 127.241C90.6196 126.342 92.1921 124.169 92.3112 122.16C92.7512 111.032 93.0625 100.063 93.0664 88.984Z" fill="#1F1B2D"/>
<path opacity="0.1" d="M88.5854 127.324C90.6599 126.425 92.2324 124.253 92.3515 122.243C92.8363 110.994 93.0861 100.004 93.1291 89.0069C93.1312 73.6181 92.6914 58.4816 91.7773 42.5596C91.6896 40.5446 90.1152 38.4077 88.0087 37.5165C79.9068 34.2048 71.4681 32.5507 63.1062 32.5658L63.0426 132.54C71.6113 132.531 80.2485 130.836 88.5854 127.324Z" fill="white"/>
<path d="M36.4769 84.0362C36.4834 76.5148 36.8644 68.9223 37.6315 60.8525C37.8121 58.8652 39.7028 57.1484 42.3081 56.5082C55.8766 53.1595 70.1578 53.1439 83.7429 56.5042C86.3527 57.1651 88.2293 58.8631 88.4008 60.8397C89.1652 68.9108 89.55 76.5039 89.5435 84.0253C89.5556 89.4331 89.3609 94.8352 88.9255 100.698C88.8064 102.708 86.9157 104.424 84.288 105.125C70.3615 108.687 55.6668 108.692 41.7576 105.079C39.1479 104.418 37.2937 102.659 37.1222 100.683C36.6689 94.775 36.5114 89.3836 36.4769 84.0362Z" fill="url(#paint3_linear_6051_28082)"/>
<path d="M85.4302 105.055L91.8749 131.028C92.1534 132.154 93.2931 132.836 94.5006 132.584C95.6467 132.31 96.3407 131.191 96.0846 130.005L89.7289 104.542C89.7123 104.399 89.6566 104.174 89.6399 104.031L89.7249 57.2779C89.7473 57.2175 89.7082 57.1351 89.7306 57.0747L91.8309 32.6565C91.927 31.4598 91.0447 30.4598 89.8877 30.3875C88.6693 30.2932 87.6513 31.1597 87.5776 32.2961L85.494 56.8571C85.4716 56.9175 85.5106 56.9999 85.4882 57.0602L85.4641 104.588C85.4193 104.709 85.4135 104.912 85.4302 105.055ZM40.5991 56.9901L38.5076 32.2335C38.3744 31.0914 37.3859 30.1902 36.1617 30.299C34.9989 30.4298 34.0814 31.4008 34.1922 32.6032L36.2504 57.0743C36.228 57.1347 36.2671 57.2171 36.2447 57.2774L36.2436 103.993C36.2603 104.135 36.193 104.317 36.1873 104.52L29.8772 129.961C29.5968 131.092 30.2889 132.229 31.4401 132.504C32.5913 132.78 33.7489 132.1 34.0293 130.969L40.4572 105.023C40.5244 104.842 40.5078 104.699 40.5135 104.496L40.5319 57.1712C40.6158 57.1328 40.5767 57.0504 40.5991 56.9901Z" fill="#FD5631"/>
<path d="M63.0202 8.59381C66.7875 8.57497 70.5266 8.81964 74.3215 9.28944C74.858 9.34479 75.2832 8.94986 75.2557 8.46121C75.2672 8.05496 74.9266 7.65939 74.5129 7.64806C70.6342 7.21662 66.8336 6.94994 63.0663 6.96878C59.2375 6.9656 55.4644 7.18756 51.6016 7.65101C51.1656 7.70006 50.8244 8.05664 50.8743 8.48491C50.9018 8.97355 51.3039 9.39113 51.8238 9.30372C55.5412 8.85662 59.3143 8.63465 63.0202 8.59381Z" fill="white"/>
<path d="M93.1051 175.3C94.5551 174.023 95.1905 171.767 95.1515 169.271L83.5213 177.341C83.3304 177.48 83.1781 177.701 83.0871 177.945C82.7457 178.858 83.6444 179.798 84.6076 179.451C87.9562 178.297 90.8757 176.99 93.1051 175.3ZM41.1866 179.668C42.1062 179.995 43.0676 179.096 42.7277 178.148C42.6734 177.921 42.4737 177.713 42.2512 177.565L30.7741 169.624C30.729 172.159 31.3564 174.382 32.7613 175.639C34.9177 177.302 37.8534 178.552 41.1866 179.668Z" fill="url(#paint4_linear_6051_28082)"/>
<path fill-rule="evenodd" clip-rule="evenodd" d="M87.7865 94.6089C87.9571 91.089 88.0573 87.6036 88.0534 84.1074C88.0266 76.3005 87.6866 68.5866 86.9446 60.4551C86.8505 59.3955 85.5771 58.3238 83.8503 57.9107C77.0884 56.2415 70.0967 55.3793 63.1434 55.3516L63.1434 55.424C56.1248 55.4181 49.1048 56.2632 42.3314 57.9535C40.5816 58.3528 39.3286 59.4773 39.2159 60.5313C38.4488 68.6011 38.0844 76.3363 38.0273 84.1816C38.0337 89.7925 38.2469 95.4091 38.6444 101.092C38.6771 102.129 40.012 103.223 41.7388 103.636C55.5865 107.227 70.488 107.229 84.353 103.644C86.1253 103.184 87.3559 102.12 87.4686 101.066C87.5851 98.8991 87.6952 96.7494 87.7865 94.6089Z" fill="url(#paint5_linear_6051_28082)"/>
<defs>
<linearGradient id="paint0_linear_6051_28082" x1="26.8984" y1="184.006" x2="168.802" y2="67.0032" gradientUnits="userSpaceOnUse">
<stop stop-color="#5D3CF2"/>
<stop offset="1" stop-color="#FD5631"/>
</linearGradient>
<linearGradient id="paint1_linear_6051_28082" x1="62.9444" y1="180.324" x2="62.9415" y2="185.477" gradientUnits="userSpaceOnUse">
<stop stop-color="white"/>
<stop offset="1" stop-color="#628E93"/>
</linearGradient>
<linearGradient id="paint2_linear_6051_28082" x1="62.9557" y1="155.765" x2="63.0262" y2="30.2624" gradientUnits="userSpaceOnUse">
<stop stop-color="#151515"/>
<stop offset="1"/>
</linearGradient>
<linearGradient id="paint3_linear_6051_28082" x1="62.9775" y1="117.538" x2="63.0128" y2="54.671" gradientUnits="userSpaceOnUse">
<stop stop-color="#151515"/>
<stop offset="1"/>
</linearGradient>
<linearGradient id="paint4_linear_6051_28082" x1="62.9355" y1="173.272" x2="62.9946" y2="184.746" gradientUnits="userSpaceOnUse">
<stop stop-color="white"/>
<stop offset="1" stop-color="#628E93"/>
</linearGradient>
<linearGradient id="paint5_linear_6051_28082" x1="38.0273" y1="106.331" x2="71.225" y2="40.1545" gradientUnits="userSpaceOnUse">
<stop stop-color="#5D3CF2"/>
<stop offset="1" stop-color="#FD5631"/>
</linearGradient>
</defs>
</svg>
