<svg width="130" height="58" viewBox="0 0 130 58" fill="none" xmlns="http://www.w3.org/2000/svg">
<path d="M129.209 23.2687C128.427 22.0955 126.863 21.3133 124.516 20.9222C120.801 20.3356 113.958 19.9445 108.483 19.5535C104.767 19.3579 101.639 18.9669 100.466 18.9669C99.488 18.7713 98.7059 18.5758 97.9238 17.9892L88.7336 7.6259C84.4318 2.73753 78.1748 0 71.7221 0H24.0116C17.1679 0 10.9108 3.71521 7.58673 9.58124L2.11178 19.1624C-0.234634 23.2687 -0.625715 28.157 0.938562 32.4588L3.87158 40.6712C3.87158 41.2578 3.87158 42.04 3.87158 42.6266C3.67605 44.7775 3.67605 46.5373 4.84925 47.7105C5.43586 48.2971 6.41353 48.6882 7.78227 48.6882H14.4304C16.3858 53.5765 21.0787 57.0961 26.7492 57.0961C32.2241 57.0961 37.1125 53.5765 39.0678 48.6882H95.7729C97.7282 53.5765 102.421 57.0961 108.092 57.0961C113.566 57.0961 118.455 53.5765 120.41 48.6882H127.645C127.841 48.6882 128.036 48.6882 128.232 48.4926C128.427 48.2971 128.427 48.1015 128.427 47.906V39.6936C128.427 36.7605 129.014 34.023 129.6 31.6766C129.796 28.157 130.578 25.224 129.209 23.2687ZM7.58673 47.1239C6.60905 47.1239 6.02246 46.9283 5.82693 46.5373C5.24032 45.9507 5.2403 44.3864 5.43583 42.6266C5.43583 42.04 5.43583 41.2578 5.43583 40.6712H13.8439C13.6483 41.6489 13.4528 42.8221 13.4528 43.7998C13.4528 44.973 13.6483 45.9506 13.8439 47.1239H7.58673ZM37.5036 47.1239C37.5036 47.3194 37.308 47.7104 37.308 47.906C37.308 48.1015 37.1125 48.4926 36.9169 48.6882C35.1571 52.7944 31.0509 55.5319 26.3581 55.5319C21.6652 55.5319 17.559 52.7944 15.7992 48.6882C15.6037 48.4926 15.6036 48.1015 15.4081 47.906C15.4081 47.7104 15.2126 47.3194 15.2126 47.1239C14.8215 46.1462 14.626 44.973 14.626 43.7998C14.626 42.6266 14.8215 41.6489 15.2126 40.6712C15.2126 40.4757 15.4081 40.0846 15.4081 39.8891C15.4081 39.6936 15.6037 39.3025 15.6037 39.1069C17.3635 35.0007 21.4697 32.0677 26.1625 32.0677C30.8553 32.0677 34.9616 35.0007 36.7214 39.1069C36.9169 39.3025 36.9169 39.6936 36.9169 39.8891C36.9169 40.0846 37.1125 40.4757 37.1125 40.6712C37.308 41.6489 37.699 42.8221 37.699 43.7998C38.0901 44.973 37.8946 45.9506 37.5036 47.1239ZM39.0678 47.1239C39.2633 46.1462 39.4589 44.973 39.4589 43.7998C39.4589 42.6266 39.2633 41.6489 39.0678 40.6712H94.7952C94.5996 41.6489 94.4041 42.8221 94.4041 43.7998C94.4041 44.973 94.5996 45.9506 94.7952 47.1239H39.0678ZM118.65 47.1239C118.65 47.3194 118.455 47.7104 118.455 47.906C118.455 48.1015 118.259 48.4926 118.064 48.6882C116.304 52.7944 112.198 55.5319 107.505 55.5319C102.812 55.5319 98.7059 52.7944 96.9461 48.6882C96.7505 48.4926 96.7505 48.1015 96.555 47.906C96.555 47.7104 96.3594 47.3194 96.3594 47.1239C95.9684 46.1462 95.7729 44.973 95.7729 43.7998C95.7729 42.6266 95.9684 41.6489 96.3594 40.6712C96.3594 40.4757 96.555 40.0846 96.555 39.8891C96.555 39.6936 96.7505 39.3025 96.7505 39.1069C98.5103 35.0007 102.617 32.0677 107.309 32.0677C112.002 32.0677 116.108 35.0007 117.868 39.1069C118.064 39.3025 118.064 39.6936 118.064 39.8891C118.064 40.0846 118.259 40.4757 118.259 40.6712C118.455 41.6489 118.846 42.8221 118.846 43.7998C119.237 44.973 119.042 45.9506 118.65 47.1239ZM126.276 47.1239H120.215C120.41 46.1462 120.606 44.973 120.606 43.7998C120.606 42.6266 120.41 41.6489 120.215 40.6712H126.276V47.1239ZM127.645 31.2855C127.058 33.632 126.472 36.3694 126.472 39.1069H119.824C117.868 34.2186 113.175 30.699 107.505 30.699C101.834 30.699 97.1416 34.2186 95.1863 39.1069H38.4812C36.5259 34.2186 31.833 30.699 26.1625 30.699C20.492 30.699 15.7992 34.2186 13.8439 39.1069H4.65371L2.11178 31.8722C1.52518 30.3079 1.32966 28.7436 1.32966 27.3748H6.02247C6.41354 27.3748 6.8046 26.9838 6.8046 26.5927C6.8046 26.2017 6.41354 25.8106 6.02247 25.8106H1.32966C1.52519 23.6597 2.11178 21.7044 3.08945 19.749L8.5644 10.1678C11.693 4.69285 17.3635 1.36877 23.6206 1.36877H71.331C77.3926 1.36877 83.2587 3.91073 87.1693 8.40802L96.555 18.9669L96.7505 19.1624C97.7282 19.749 98.9014 20.3356 100.075 20.3356C101.248 20.5312 104.572 20.7267 108.287 20.9222C113.762 21.3133 120.606 21.8999 124.125 22.291C126.081 22.4865 127.254 23.0731 127.841 24.0508C128.818 25.6151 128.232 28.157 127.645 31.2855Z" fill="url(#paint0_linear_6051_21277)"/>
<path d="M62.5327 25.8086H58.622C58.2309 25.8086 57.8398 26.1997 57.8398 26.5907C57.8398 26.9818 58.2309 27.3728 58.622 27.3728H62.5327C62.9237 27.3728 63.3148 26.9818 63.3148 26.5907C63.3148 26.1997 62.9237 25.8086 62.5327 25.8086Z" fill="url(#paint1_linear_6051_21277)"/>
<path d="M113.957 39.8871C113.762 39.6915 113.566 39.3004 113.371 39.1049C112.002 37.3451 109.851 36.1719 107.505 36.1719C105.158 36.1719 103.007 37.3451 101.639 39.1049C101.443 39.3004 101.248 39.6915 101.052 39.8871C100.857 40.0826 100.857 40.4737 100.661 40.6692C100.27 41.6469 99.8789 42.6246 99.8789 43.7978C99.8789 44.971 100.27 46.1442 100.661 47.1218C100.857 47.3174 100.857 47.7084 101.052 47.904C101.248 48.0995 101.443 48.4906 101.639 48.6861C103.007 50.4459 105.158 51.4236 107.505 51.4236C109.851 51.4236 112.002 50.2504 113.371 48.6861C113.566 48.4906 113.762 48.295 113.957 47.904C114.153 47.7084 114.153 47.3174 114.348 47.1218C114.74 46.1442 115.131 44.971 115.131 43.7978C115.131 42.6246 114.935 41.6469 114.348 40.6692C114.348 40.2781 114.153 40.0826 113.957 39.8871ZM112.589 47.1218C112.393 47.3174 112.198 47.7084 112.002 47.904C111.806 48.0995 111.415 48.4906 111.22 48.6861C110.242 49.4683 108.873 49.8593 107.505 49.8593C106.136 49.8593 104.963 49.4683 103.79 48.6861C103.399 48.4906 103.203 48.295 103.007 47.904C102.812 47.7084 102.616 47.5129 102.421 47.1218C101.834 46.1442 101.443 44.971 101.443 43.7978C101.443 42.6246 101.834 41.6469 102.421 40.6692C102.616 40.4737 102.812 40.0826 103.007 39.8871C103.203 39.6915 103.594 39.3004 103.79 39.1049C104.767 38.3228 106.136 37.7362 107.505 37.7362C108.873 37.7362 110.242 38.3228 111.22 39.1049C111.415 39.3004 111.806 39.496 112.002 39.8871C112.198 40.0826 112.393 40.2781 112.589 40.6692C113.175 41.6469 113.566 42.6246 113.566 43.7978C113.566 44.971 113.175 46.1442 112.589 47.1218Z" fill="url(#paint2_linear_6051_21277)"/>
<path d="M32.8128 39.8871C32.6173 39.6915 32.4218 39.3004 32.2263 39.1049C30.8575 37.3451 28.7066 36.1719 26.3602 36.1719C24.0138 36.1719 21.8629 37.3451 20.4942 39.1049C20.2986 39.3004 20.1031 39.6915 19.9076 39.8871C19.7121 40.0826 19.712 40.4737 19.5165 40.6692C19.1254 41.6469 18.7344 42.6246 18.7344 43.7978C18.7344 44.971 19.1254 46.1442 19.5165 47.1218C19.712 47.3174 19.7121 47.7084 19.9076 47.904C20.1031 48.0995 20.2986 48.4906 20.4942 48.6861C21.8629 50.4459 24.0138 51.4236 26.3602 51.4236C28.7066 51.4236 30.8575 50.2504 32.2263 48.6861C32.4218 48.4906 32.6173 48.295 32.8128 47.904C33.0084 47.7084 33.0084 47.3174 33.2039 47.1218C33.595 46.1442 33.9861 44.971 33.9861 43.7978C33.9861 42.6246 33.7905 41.6469 33.2039 40.6692C33.0084 40.2781 33.0084 40.0826 32.8128 39.8871ZM31.4441 47.1218C31.2486 47.3174 31.053 47.7084 30.8575 47.904C30.662 48.0995 30.2709 48.4906 30.0754 48.6861C29.0977 49.4683 27.729 49.8593 26.3602 49.8593C24.9915 49.8593 23.8183 49.4683 22.6451 48.6861C22.254 48.4906 22.0585 48.295 21.8629 47.904C21.6674 47.7084 21.4718 47.5129 21.2763 47.1218C20.6897 46.1442 20.2986 44.971 20.2986 43.7978C20.2986 42.6246 20.6897 41.6469 21.2763 40.6692C21.4718 40.4737 21.6674 40.0826 21.8629 39.8871C22.0585 39.6915 22.4495 39.3004 22.6451 39.1049C23.6227 38.3228 24.9915 37.7362 26.3602 37.7362C27.729 37.7362 29.0977 38.3228 30.0754 39.1049C30.2709 39.3004 30.662 39.496 30.8575 39.8871C31.053 40.0826 31.2486 40.2781 31.4441 40.6692C32.0307 41.6469 32.4218 42.6246 32.4218 43.7978C32.4218 44.971 32.0307 46.1442 31.4441 47.1218Z" fill="url(#paint3_linear_6051_21277)"/>
<path d="M31.4428 25.8086H27.5321C27.1411 25.8086 26.75 26.1997 26.75 26.5907C26.75 26.9818 27.1411 27.3728 27.5321 27.3728H31.4428C31.8339 27.3728 32.2249 26.9818 32.2249 26.5907C32.2249 26.1997 31.8339 25.8086 31.4428 25.8086Z" fill="url(#paint4_linear_6051_21277)"/>
<path d="M126.081 25.6206C125.69 25.6206 125.298 25.8162 125.103 26.2072L123.93 32.2688C123.93 32.6598 124.125 33.0509 124.516 33.2464H124.712C125.103 33.2464 125.298 33.0509 125.494 32.6599L126.667 26.5983C126.667 26.2072 126.472 25.8161 126.081 25.6206Z" fill="url(#paint5_linear_6051_21277)"/>
<path d="M83.6497 9.7762C80.5211 6.06104 75.8283 3.91016 71.1354 3.91016H24.7938C19.9054 3.91016 15.6037 6.45211 13.0617 10.7539C11.693 13.1003 11.693 16.0334 13.0617 18.3798C14.4305 20.7262 16.9724 22.2905 19.7099 22.2905H82.4765H88.147C89.3202 22.2905 90.1023 21.7038 90.6889 20.7261C91.08 19.7485 91.08 18.5753 90.2979 17.7931L83.6497 9.7762ZM19.7099 20.7261C17.559 20.7261 15.4081 19.5529 14.4304 17.5976C13.2572 15.6422 13.2572 13.2959 14.4304 11.5361C16.5813 7.8209 20.492 5.47447 24.7938 5.47447H27.9223L25.1848 20.5306H19.7099V20.7261ZM26.5536 20.7261L29.2911 5.8655C29.2911 5.66997 29.2911 5.67 29.2911 5.47447H51.191L53.3418 20.7261H26.5536ZM54.7106 20.7261L52.5597 5.47447H71.1354C73.2863 5.47447 75.2417 5.86555 77.197 6.64769L81.6943 20.5306H54.7106V20.7261ZM89.3202 20.1396C89.1247 20.5306 88.7336 20.9217 88.147 20.9217H83.0631L78.9568 8.0164C80.3256 8.79853 81.4988 9.77622 82.4765 11.145L89.1247 18.9663C89.5157 19.1619 89.5157 19.553 89.3202 20.1396Z" fill="url(#paint6_linear_6051_21277)"/>
<defs>
<linearGradient id="paint0_linear_6051_21277" x1="0" y1="57.0961" x2="19.1615" y2="-31.5295" gradientUnits="userSpaceOnUse">
<stop stop-color="#5D3CF2"/>
<stop offset="1" stop-color="#FD5631"/>
</linearGradient>
<linearGradient id="paint1_linear_6051_21277" x1="57.8398" y1="27.3728" x2="58.1904" y2="24.8806" gradientUnits="userSpaceOnUse">
<stop stop-color="#5D3CF2"/>
<stop offset="1" stop-color="#FD5631"/>
</linearGradient>
<linearGradient id="paint2_linear_6051_21277" x1="99.8789" y1="51.4236" x2="109.698" y2="31.4768" gradientUnits="userSpaceOnUse">
<stop stop-color="#5D3CF2"/>
<stop offset="1" stop-color="#FD5631"/>
</linearGradient>
<linearGradient id="paint3_linear_6051_21277" x1="18.7344" y1="51.4236" x2="28.5537" y2="31.4768" gradientUnits="userSpaceOnUse">
<stop stop-color="#5D3CF2"/>
<stop offset="1" stop-color="#FD5631"/>
</linearGradient>
<linearGradient id="paint4_linear_6051_21277" x1="26.75" y1="27.3728" x2="27.1005" y2="24.8806" gradientUnits="userSpaceOnUse">
<stop stop-color="#5D3CF2"/>
<stop offset="1" stop-color="#FD5631"/>
</linearGradient>
<linearGradient id="paint5_linear_6051_21277" x1="123.93" y1="33.2464" x2="129.828" y2="28.9451" gradientUnits="userSpaceOnUse">
<stop stop-color="#5D3CF2"/>
<stop offset="1" stop-color="#FD5631"/>
</linearGradient>
<linearGradient id="paint6_linear_6051_21277" x1="12.0352" y1="22.2905" x2="15.415" y2="-7.1859" gradientUnits="userSpaceOnUse">
<stop stop-color="#5D3CF2"/>
<stop offset="1" stop-color="#FD5631"/>
</linearGradient>
</defs>
</svg>
