<svg width="48" height="48" viewBox="0 0 48 48" fill="none" xmlns="http://www.w3.org/2000/svg">
<g clip-path="url(#clip0_6053_6040)">
<path d="M21.2794 31.7542C21.0319 31.7542 20.791 31.8546 20.6157 32.029C20.4413 32.2033 20.3419 32.4452 20.3419 32.6917C20.3419 32.9383 20.4413 33.1802 20.6157 33.3546C20.791 33.5289 21.0319 33.6292 21.2794 33.6292C21.526 33.6292 21.7669 33.529 21.9422 33.3546C22.1166 33.1802 22.216 32.9383 22.216 32.6917C22.216 32.4452 22.1166 32.2033 21.9422 32.029C21.7668 31.8546 21.526 31.7542 21.2794 31.7542Z" fill="url(#paint0_linear_6053_6040)"/>
<path d="M9.03754 26.9469C8.38419 26.4894 7.59163 26.3135 6.80619 26.4523C6.02066 26.5907 5.33601 27.0269 4.87851 27.6803C4.42101 28.3337 4.24532 29.1262 4.38379 29.9117C4.52226 30.6973 4.95838 31.3819 5.61191 31.8394C6.11966 32.1949 6.71132 32.3803 7.31844 32.3803C7.49263 32.3803 7.66813 32.3651 7.84335 32.3341C9.46494 32.0483 10.5517 30.4964 10.2658 28.8748C10.1271 28.0889 9.69098 27.4044 9.03754 26.9469ZM7.51766 30.4874C7.22544 30.5388 6.93051 30.4737 6.68732 30.3033C6.44413 30.1331 6.28185 29.8784 6.23029 29.586C6.17873 29.2937 6.24407 28.9988 6.41441 28.7557C6.58466 28.5125 6.83938 28.3502 7.13169 28.2987C7.19685 28.2872 7.26219 28.2815 7.32698 28.2815C7.55291 28.2815 7.77313 28.3504 7.96204 28.4827C8.20523 28.6529 8.36751 28.9077 8.41907 29.2C8.52548 29.8034 8.12104 30.381 7.51766 30.4874Z" fill="url(#paint1_linear_6053_6040)"/>
<path d="M32.7478 21.8793C31.9622 22.0178 31.2777 22.4539 30.8201 23.1073C30.3625 23.7608 30.1869 24.5532 30.3254 25.3388C30.4639 26.1244 30.9 26.809 31.5534 27.2666C32.0612 27.6221 32.6528 27.8074 33.2599 27.8074C33.4341 27.8074 33.6097 27.7922 33.7849 27.7613C35.4064 27.4752 36.4931 25.9234 36.2073 24.3018C35.9213 22.6802 34.3697 21.5929 32.7478 21.8793ZM33.4593 25.9147C33.167 25.966 32.8721 25.9008 32.629 25.7306C32.3858 25.5603 32.2235 25.3055 32.172 25.0132C32.1204 24.7209 32.1857 24.4259 32.3561 24.1828C32.5263 23.9397 32.7811 23.7774 33.0734 23.7258C33.1383 23.7144 33.203 23.7088 33.2669 23.7088C33.7957 23.7088 34.2659 24.0888 34.3608 24.6272C34.4672 25.2306 34.0627 25.8083 33.4593 25.9147Z" fill="url(#paint2_linear_6053_6040)"/>
<path d="M23.9459 13.9626C24.1924 13.9626 24.4343 13.8624 24.6087 13.6871C24.7831 13.5127 24.8834 13.2717 24.8834 13.0243C24.8834 12.7777 24.7831 12.5368 24.6087 12.3615C24.4343 12.1872 24.1924 12.0868 23.9459 12.0868C23.6993 12.0868 23.4574 12.1871 23.2831 12.3615C23.1087 12.5358 23.0084 12.7777 23.0084 13.0243C23.0084 13.2718 23.1087 13.5127 23.2831 13.6871C23.4574 13.8624 23.6993 13.9626 23.9459 13.9626Z" fill="url(#paint3_linear_6053_6040)"/>
<path d="M25.3702 28.587C25.8763 28.4977 26.3073 28.1876 26.5529 27.7363C26.7985 27.2849 26.8245 26.7545 26.6246 26.281L25.8137 24.3621C25.5072 23.6369 24.7516 23.2256 23.9764 23.3626L15.5551 24.8475C14.7797 24.9842 14.2102 25.6288 14.1704 26.4151L14.0647 28.4958C14.0387 29.009 14.2446 29.4984 14.6298 29.8386C14.9402 30.1127 15.3322 30.2594 15.7375 30.2594C15.8353 30.2594 15.9339 30.2508 16.0322 30.2335L25.3702 28.587ZM15.9498 28.3442L16.035 26.6667L24.1476 25.2363L24.8014 26.7834L15.9498 28.3442Z" fill="url(#paint4_linear_6053_6040)"/>
<path d="M47.0625 30.5048H44.5312C44.3495 30.5048 44.1719 30.5576 44.0196 30.6567L40.4125 33.0057C40.0085 33.0948 38.9301 33.3332 37.8505 33.5727C37.4516 33.6611 37.0536 33.7495 36.6883 33.8309C36.6822 33.7651 36.6741 33.6991 36.6624 33.633L36.2002 31.0118L37.3786 30.804C38.8744 30.5403 39.8768 29.1087 39.613 27.613L38.6452 22.1245C38.2705 19.9994 36.5674 18.4368 34.5412 18.1376L34.0096 16.9284L34.6438 16.8165C36.1711 16.5473 37.1945 15.0856 36.9252 13.5584C36.6558 12.0312 35.1948 11.0075 33.667 11.2771L31.6792 11.6276L30.9964 10.0747C30.0954 8.02531 27.9263 6.86554 25.7217 7.25422L8.40436 10.3077C6.20238 10.6959 4.56093 12.5252 4.4128 14.7564L4.30002 16.4552L2.32482 16.8035C1.58495 16.9339 0.940242 17.3446 0.509372 17.96C0.0785007 18.5754 -0.0869664 19.3217 0.0434385 20.0616C0.173844 20.8014 0.584652 21.4461 1.20002 21.877C1.67824 22.2118 2.23539 22.3864 2.80726 22.3864C2.97132 22.3864 3.1366 22.3721 3.30159 22.3429L3.91631 22.2346L3.82846 23.557C2.03326 24.5336 0.972117 26.5804 1.34608 28.7013L2.31385 34.1897C2.54916 35.5243 3.71428 36.4662 5.02527 36.4662C5.18342 36.4662 5.34373 36.4525 5.50479 36.4241L6.68322 36.2163L7.1454 38.8374C7.35052 40.0008 8.36601 40.8216 9.50863 40.8216C9.64653 40.8216 9.78631 40.8096 9.92666 40.7849L11.656 40.4799C12.2876 40.3685 12.838 40.0179 13.2059 39.4927C13.5737 38.9673 13.715 38.3302 13.6036 37.6986L13.1414 35.0774L17.7335 34.2677C18.2434 34.1778 18.5839 33.6916 18.494 33.1817C18.4042 32.6719 17.9179 32.3314 17.408 32.4213L5.17939 34.5776C4.70146 34.6627 4.24462 34.3418 4.16043 33.8642L3.19266 28.3758C2.9041 26.7392 4.00077 25.173 5.63726 24.8845L33.3077 20.0054C34.9444 19.7168 36.5103 20.8135 36.7989 22.45L37.7667 27.9385C37.8509 28.4161 37.5308 28.8732 37.0532 28.9575L24.7945 31.1191C24.2846 31.209 23.9441 31.6953 24.034 32.2051C24.1239 32.715 24.611 33.0556 25.12 32.9655L29.742 32.1505L30.2042 34.7716C30.3156 35.4032 30.6662 35.9535 31.1916 36.3214C31.5998 36.6072 32.0754 36.7563 32.5636 36.7563C32.5976 36.7563 32.6318 36.7533 32.666 36.7518C32.4156 37.044 32.1348 37.3719 31.8159 37.744C31.3365 38.3035 31.23 39.0669 31.538 39.7363C31.8459 40.4059 32.4952 40.8217 33.2322 40.8217H47.0625C47.5803 40.8217 48 40.4019 48 39.8842V31.4423C47.9999 30.9246 47.5802 30.5048 47.0625 30.5048ZM11.2951 35.4032L11.7573 38.0243C11.7817 38.1626 11.7507 38.3022 11.6702 38.4173C11.5897 38.5323 11.469 38.6092 11.3307 38.6336L9.60125 38.9385C9.31551 38.9886 9.04241 38.7975 8.99207 38.5119L8.52989 35.8907L11.2951 35.4032ZM33.9928 13.1235C34.5022 13.0342 34.9891 13.375 35.0788 13.8839C35.1686 14.393 34.8274 14.8802 34.3184 14.97L33.233 15.1614L32.4562 13.3944L33.9928 13.1235ZM26.0475 9.10051C27.3988 8.86211 28.7279 9.5731 29.2801 10.8291L32.5372 18.2373L19.8781 20.4695L22.5807 16.6097C22.8777 16.1857 22.7746 15.6011 22.3505 15.3041C21.9263 15.007 21.3418 15.1102 21.0448 15.5343L17.2668 20.9299L11.266 21.988L19.479 10.2587L26.0475 9.10051ZM8.72995 12.1542L16.8678 10.7193L8.65486 22.4485L5.74723 22.9612L6.28375 14.8806C6.3745 13.5133 7.38043 12.3921 8.72995 12.1542ZM2.97591 20.4966C2.72916 20.5396 2.48045 20.4848 2.27542 20.3412C2.07029 20.1976 1.93342 19.9827 1.88992 19.7361C1.80011 19.2269 2.14126 18.7398 2.65041 18.65L4.17215 18.3817L4.04427 20.3082L2.97591 20.4966ZM32.267 34.7855C32.1518 34.705 32.0751 34.5843 32.0507 34.446L31.5885 31.8249L34.3537 31.3374L34.8159 33.9585C34.8663 34.244 34.6749 34.5174 34.3894 34.5677L32.66 34.8727C32.5214 34.8968 32.382 34.866 32.267 34.7855ZM46.125 38.9468H33.2544C34.5417 37.4442 35.4496 36.3849 35.8268 35.9451C36.6658 35.7548 39.2211 35.1887 40.9833 34.7997C41.0934 34.7754 41.1983 34.7313 41.2928 34.6698L44.8095 32.3797H46.1249L46.125 38.9468Z" fill="url(#paint5_linear_6053_6040)"/>
</g>
<defs>
<linearGradient id="paint0_linear_6053_6040" x1="0" y1="40.8217" x2="16.853" y2="-8.02443" gradientUnits="userSpaceOnUse">
<stop stop-color="#5D3CF2"/>
<stop offset="1" stop-color="#FD5631"/>
</linearGradient>
<linearGradient id="paint1_linear_6053_6040" x1="0" y1="40.8217" x2="16.853" y2="-8.02443" gradientUnits="userSpaceOnUse">
<stop stop-color="#5D3CF2"/>
<stop offset="1" stop-color="#FD5631"/>
</linearGradient>
<linearGradient id="paint2_linear_6053_6040" x1="0" y1="40.8217" x2="16.853" y2="-8.02443" gradientUnits="userSpaceOnUse">
<stop stop-color="#5D3CF2"/>
<stop offset="1" stop-color="#FD5631"/>
</linearGradient>
<linearGradient id="paint3_linear_6053_6040" x1="0" y1="40.8217" x2="16.853" y2="-8.02443" gradientUnits="userSpaceOnUse">
<stop stop-color="#5D3CF2"/>
<stop offset="1" stop-color="#FD5631"/>
</linearGradient>
<linearGradient id="paint4_linear_6053_6040" x1="0" y1="40.8217" x2="16.853" y2="-8.02443" gradientUnits="userSpaceOnUse">
<stop stop-color="#5D3CF2"/>
<stop offset="1" stop-color="#FD5631"/>
</linearGradient>
<linearGradient id="paint5_linear_6053_6040" x1="0" y1="40.8217" x2="16.853" y2="-8.02443" gradientUnits="userSpaceOnUse">
<stop stop-color="#5D3CF2"/>
<stop offset="1" stop-color="#FD5631"/>
</linearGradient>
<clipPath id="clip0_6053_6040">
<rect width="48" height="48" fill="white"/>
</clipPath>
</defs>
</svg>
