<svg width="20" height="20" viewBox="0 0 20 20" fill="none" xmlns="http://www.w3.org/2000/svg">
<path fill-rule="evenodd" clip-rule="evenodd" d="M3.3335 9.99993C3.3335 9.53969 3.70659 9.16659 4.16683 9.16659H15.8335C16.2937 9.16659 16.6668 9.53969 16.6668 9.99993C16.6668 10.4602 16.2937 10.8333 15.8335 10.8333H4.16683C3.70659 10.8333 3.3335 10.4602 3.3335 9.99993Z" fill="black"/>
<path fill-rule="evenodd" clip-rule="evenodd" d="M16.4227 9.41067C16.7482 9.73611 16.7482 10.2637 16.4227 10.5892L13.0894 13.9225C12.764 14.248 12.2363 14.248 11.9109 13.9225C11.5855 13.5971 11.5855 13.0694 11.9109 12.744L15.2442 9.41067C15.5697 9.08523 16.0973 9.08523 16.4227 9.41067Z" fill="black"/>
<path fill-rule="evenodd" clip-rule="evenodd" d="M11.9109 6.07733C12.2363 5.75189 12.764 5.75189 13.0894 6.07733L16.4227 9.41067C16.7482 9.73611 16.7482 10.2637 16.4227 10.5892C16.0973 10.9146 15.5697 10.9146 15.2442 10.5892L11.9109 7.25584C11.5855 6.9304 11.5855 6.40277 11.9109 6.07733Z" fill="black"/>
</svg>
