<svg width="86" height="48" viewBox="0 0 86 48" fill="none" xmlns="http://www.w3.org/2000/svg">
<path d="M58.563 15.5625C53.9033 15.5625 50.125 19.3401 50.125 24C50.125 28.6599 53.9033 32.4375 58.563 32.4375C63.2226 32.4375 67 28.6599 67 24C67 19.3401 63.2226 15.5625 58.563 15.5625ZM58.563 30.0714C55.2157 30.0714 52.4928 27.3474 52.4928 24C52.4928 20.6525 55.2157 17.9295 58.563 17.9295C61.9102 17.9295 64.6331 20.6525 64.6331 24C64.6331 27.3474 61.9103 30.0714 58.563 30.0714Z" fill="#EFECF3"/>
<path d="M58.5623 15.5625C58.1606 15.5625 57.7656 15.5912 57.3789 15.6456C61.4783 16.2211 65.3752 19.7419 65.3752 24C65.3752 28.2581 61.4782 31.7789 57.3789 32.3544C57.7656 32.4087 58.1606 32.4375 58.5623 32.4375C63.222 32.4375 67.0003 28.6599 67.0003 24C67.0003 19.3401 63.222 15.5625 58.5623 15.5625Z" fill="#BBB7C5"/>
<path d="M48.2494 15.5625C43.5899 15.5625 39.8125 19.3401 39.8125 24C39.8125 28.6599 43.5898 32.4375 48.2494 32.4375C52.9091 32.4375 56.6873 28.6599 56.6873 24C56.6873 19.3401 52.909 15.5625 48.2494 15.5625ZM48.2494 30.0714C44.9022 30.0714 42.1794 27.3474 42.1794 24C42.1794 20.6525 44.9022 17.9295 48.2494 17.9295C51.5967 17.9295 54.3205 20.6525 54.3205 24C54.3205 27.3474 51.5967 30.0714 48.2494 30.0714Z" fill="#EFECF3"/>
<path d="M48.2498 15.5625C47.8481 15.5625 47.4531 15.5912 47.0664 15.6456C51.1657 16.2211 55.0626 19.7419 55.0626 24C55.0626 28.2581 51.1657 31.7789 47.0664 32.3544C47.4531 32.4087 47.8481 32.4375 48.2498 32.4375C52.9094 32.4375 56.6877 28.6599 56.6877 24C56.6877 19.3401 52.9094 15.5625 48.2498 15.5625Z" fill="#BBB7C5"/>
<path d="M37.7505 15.5625C33.0908 15.5625 29.3125 19.3401 29.3125 24C29.3125 28.6599 33.0908 32.4375 37.7505 32.4375C42.4101 32.4375 46.1875 28.6599 46.1875 24C46.1875 19.3401 42.4101 15.5625 37.7505 15.5625ZM37.7505 30.0714C34.4032 30.0714 31.6803 27.3474 31.6803 24C31.6803 20.6525 34.4032 17.9295 37.7505 17.9295C41.0977 17.9295 43.8206 20.6525 43.8206 24C43.8206 27.3474 41.0978 30.0714 37.7505 30.0714Z" fill="#EFECF3"/>
<path d="M37.7498 15.5625C37.3481 15.5625 36.9531 15.5912 36.5664 15.6456C40.6658 16.2211 44.5627 19.7419 44.5627 24C44.5627 28.2581 40.6657 31.7789 36.5664 32.3544C36.9531 32.4087 37.3481 32.4375 37.7498 32.4375C42.4095 32.4375 46.1878 28.6599 46.1878 24C46.1878 19.3401 42.4095 15.5625 37.7498 15.5625Z" fill="#BBB7C5"/>
<path d="M27.437 15.5625C22.7774 15.5625 19 19.3401 19 24C19 28.6599 22.7774 32.4375 27.437 32.4375C32.0967 32.4375 35.875 28.6599 35.875 24C35.875 19.3401 32.0967 15.5625 27.437 15.5625ZM27.437 30.0714C24.0898 30.0714 21.3669 27.3474 21.3669 24C21.3669 20.6525 24.0898 17.9295 27.437 17.9295C30.7843 17.9295 33.5082 20.6525 33.5082 24C33.5081 27.3474 30.7843 30.0714 27.437 30.0714Z" fill="#EFECF3"/>
<path d="M27.4373 15.5625C27.0356 15.5625 26.6406 15.5912 26.2539 15.6456C30.3533 16.2211 34.2502 19.7419 34.2502 24C34.2502 28.2581 30.3532 31.7789 26.2539 32.3544C26.6406 32.4088 27.0356 32.4375 27.4373 32.4375C32.097 32.4375 35.8753 28.6599 35.8753 24C35.8753 19.3401 32.097 15.5625 27.4373 15.5625Z" fill="#BBB7C5"/>
</svg>
