<svg width="20" height="20" viewBox="0 0 20 20" fill="none" xmlns="http://www.w3.org/2000/svg">
<path fill-rule="evenodd" clip-rule="evenodd" d="M5 5.00007C4.53976 5.00007 4.16667 5.37317 4.16667 5.83341V15.8334C4.16667 16.2936 4.53976 16.6667 5 16.6667H15C15.4602 16.6667 15.8333 16.2936 15.8333 15.8334V5.83341C15.8333 5.37317 15.4602 5.00007 15 5.00007H5ZM2.5 5.83341C2.5 4.45269 3.61929 3.33341 5 3.33341H15C16.3807 3.33341 17.5 4.45269 17.5 5.83341V15.8334C17.5 17.2141 16.3807 18.3334 15 18.3334H5C3.61929 18.3334 2.5 17.2141 2.5 15.8334V5.83341Z" fill="#110000"/>
<path fill-rule="evenodd" clip-rule="evenodd" d="M13.3333 1.66675C13.7936 1.66675 14.1667 2.03984 14.1667 2.50008V5.83342C14.1667 6.29365 13.7936 6.66675 13.3333 6.66675C12.8731 6.66675 12.5 6.29365 12.5 5.83342V2.50008C12.5 2.03984 12.8731 1.66675 13.3333 1.66675Z" fill="#110000"/>
<path fill-rule="evenodd" clip-rule="evenodd" d="M6.6667 1.66675C7.12693 1.66675 7.50003 2.03984 7.50003 2.50008V5.83342C7.50003 6.29365 7.12693 6.66675 6.6667 6.66675C6.20646 6.66675 5.83336 6.29365 5.83336 5.83342V2.50008C5.83336 2.03984 6.20646 1.66675 6.6667 1.66675Z" fill="#110000"/>
<path fill-rule="evenodd" clip-rule="evenodd" d="M2.5 9.16674C2.5 8.7065 2.8731 8.33341 3.33333 8.33341H16.6667C17.1269 8.33341 17.5 8.7065 17.5 9.16674C17.5 9.62698 17.1269 10.0001 16.6667 10.0001H3.33333C2.8731 10.0001 2.5 9.62698 2.5 9.16674Z" fill="#110000"/>
</svg>
