<svg width="20" height="20" viewBox="0 0 20 20" fill="none" xmlns="http://www.w3.org/2000/svg">
<path fill-rule="evenodd" clip-rule="evenodd" d="M2.74104 3.86705C2.86493 3.54543 3.17402 3.33325 3.51868 3.33325H11.852C12.1105 3.33325 12.3544 3.45323 12.5122 3.65802L15.9657 8.14095H16.4816C17.2042 8.14095 17.8904 8.4393 18.3914 8.9595C18.8913 9.47863 19.1668 10.1762 19.1668 10.8974V14.7435C19.1668 14.9645 19.079 15.1765 18.9228 15.3328C18.7665 15.489 18.5545 15.5768 18.3335 15.5768L17.1892 15.5768C16.8483 16.6778 15.8494 17.4999 14.6298 17.4999C13.4101 17.4999 12.4113 16.6778 12.0704 15.5768H7.92996C7.58902 16.6778 6.59018 17.4999 5.37052 17.4999C4.15087 17.4999 3.15203 16.6778 2.81109 15.5768L1.66683 15.5768C1.44582 15.5768 1.23385 15.489 1.07757 15.3328C0.921294 15.1765 0.833496 14.9645 0.833496 14.7435V8.97428C0.833496 8.87186 0.852376 8.77032 0.88919 8.67474L2.74104 3.86705ZM2.81109 13.9102C3.15203 12.8092 4.15087 11.9871 5.37052 11.9871C6.59018 11.9871 7.58902 12.8092 7.92996 13.9102H12.0704C12.4113 12.8092 13.4101 11.9871 14.6298 11.9871C15.8494 11.9871 16.8483 12.8092 17.1892 13.9102H17.5002V10.8974C17.5002 10.5984 17.3855 10.3177 17.1908 10.1156C16.9972 9.91448 16.7414 9.80761 16.4816 9.80761H2.50016V13.9102H2.81109ZM2.88083 8.14095H9.16683V4.99992H4.09071L2.88083 8.14095ZM10.8335 4.99992V8.14095H13.8618L11.4421 4.99992H10.8335ZM5.37052 13.6538C4.83737 13.6538 4.35201 14.1117 4.35201 14.7435C4.35201 15.3753 4.83737 15.8333 5.37052 15.8333C5.90367 15.8333 6.38904 15.3753 6.38904 14.7435C6.38904 14.1117 5.90367 13.6538 5.37052 13.6538ZM14.6298 13.6538C14.0966 13.6538 13.6113 14.1117 13.6113 14.7435C13.6113 15.3753 14.0966 15.8333 14.6298 15.8333C15.1629 15.8333 15.6483 15.3753 15.6483 14.7435C15.6483 14.1117 15.1629 13.6538 14.6298 13.6538Z" fill="black"/>
</svg>
