<svg width="48" height="48" viewBox="0 0 48 48" fill="none" xmlns="http://www.w3.org/2000/svg">
<g clip-path="url(#clip0_6053_6022)">
<path d="M16.951 17.201C16.546 16.8782 15.9562 16.9449 15.6335 17.3497L15.6179 17.3693C15.2952 17.7741 15.3618 18.364 15.7666 18.6868C15.9393 18.8244 16.1456 18.8913 16.3504 18.8913C16.6259 18.8913 16.899 18.7703 17.0841 18.5381L17.0996 18.5185C17.4223 18.1137 17.3558 17.5238 16.951 17.201Z" fill="url(#paint0_linear_6053_6022)"/>
<path d="M31.5573 16.4429C29.8345 14.72 27.5539 13.6297 25.1356 13.3727C22.7526 13.1194 20.3307 13.6789 18.3141 14.948C17.876 15.2238 17.7442 15.8026 18.02 16.2408C18.2957 16.679 18.8744 16.8109 19.3129 16.535C22.8127 14.3326 27.3028 14.8399 30.2314 17.7687C30.4145 17.9518 30.6545 18.0433 30.8944 18.0433C31.1343 18.0433 31.3742 17.9517 31.5573 17.7687C31.9234 17.4026 31.9234 16.809 31.5573 16.4429Z" fill="url(#paint1_linear_6053_6022)"/>
<path d="M47.7109 13.8244L43.4682 9.58177C43.102 9.21576 42.5086 9.21576 42.1423 9.58177L23.9484 27.7756L14.7174 18.5446C14.3512 18.1785 13.7578 18.1785 13.3915 18.5446L9.14895 22.7873C8.97317 22.9631 8.87436 23.2016 8.87436 23.4502C8.87436 23.6988 8.97317 23.9373 9.14895 24.1131L23.2855 38.2497C23.4686 38.4327 23.7085 38.5243 23.9484 38.5243C24.1883 38.5243 24.4282 38.4327 24.6113 38.2497L33.2395 29.6215C33.6056 29.2554 33.6056 28.6618 33.2395 28.2956C32.8733 27.9296 32.2799 27.9296 31.9136 28.2956L23.9484 36.261L11.1378 23.4503L14.0545 20.5335L23.2855 29.7645C23.6517 30.1305 24.2451 30.1305 24.6114 29.7645L42.8053 11.5705L45.722 14.4873L36.7887 23.4207C36.4226 23.7868 36.4226 24.3804 36.7887 24.7466C37.1549 25.1127 37.7483 25.1127 38.1146 24.7466L47.7109 15.1503C48.0769 14.7842 48.0769 14.1906 47.7109 13.8244Z" fill="url(#paint2_linear_6053_6022)"/>
<path d="M35.8123 25.7246C35.637 25.5503 35.3961 25.4499 35.1486 25.4499C34.902 25.4499 34.6601 25.5503 34.4858 25.7246C34.3115 25.899 34.2111 26.1409 34.2111 26.3874C34.2111 26.634 34.3114 26.8759 34.4858 27.0503C34.6601 27.2246 34.902 27.3249 35.1486 27.3249C35.3951 27.3249 35.637 27.2246 35.8123 27.0503C35.9866 26.8759 36.0861 26.634 36.0861 26.3874C36.0861 26.1399 35.9866 25.899 35.8123 25.7246Z" fill="url(#paint3_linear_6053_6022)"/>
<path d="M47.6907 29.318L46.6088 28.3411C45.3887 27.2396 44.6864 25.6673 44.6798 24.0242C44.6777 23.5148 44.2794 23.0786 43.7703 23.0637C43.2398 23.0482 42.8047 23.4737 42.8047 24.0008C42.8047 26.1821 43.7332 28.2713 45.3522 29.7329L45.9429 30.2662L43.9436 35.0864L43.1468 35.0457C40.9716 34.9345 38.8369 35.7548 37.2954 37.2963C35.754 38.8377 34.9338 40.9704 35.0449 43.1476L35.0856 43.9444L30.2654 45.9437L29.7322 45.3531C28.2705 43.734 26.1812 42.8055 23.9999 42.8055C21.8187 42.8055 19.7294 43.734 18.2678 45.3531L17.7345 45.9437L12.9143 43.9443L12.955 43.1475C13.0662 40.9703 12.2459 38.8375 10.7044 37.2961C9.16304 35.7548 7.03117 34.9341 4.85317 35.0456L4.05639 35.0863L2.05707 30.2661L2.6491 29.7315C4.26723 28.2707 5.19517 26.1826 5.19517 23.9988C5.19517 21.8188 4.26723 19.7307 2.6491 18.2698L2.05707 17.7353L4.05639 12.9151L4.85317 12.9558C7.03004 13.0674 9.16304 12.2467 10.7046 10.7052C12.246 9.16378 13.0662 7.03106 12.9551 4.85381L12.9144 4.05703L17.7346 2.05772L18.2691 2.64975C19.73 4.26778 21.818 5.19581 24.0018 5.19581C26.1818 5.19581 28.2699 4.26778 29.7308 2.64965L30.2652 2.05762L35.0854 4.05693L35.0447 4.85372C34.9518 6.67322 35.5094 8.46169 36.5949 9.9C36.9371 10.3535 37.6031 10.3972 38.0049 9.99543C38.3363 9.66403 38.37 9.14034 38.088 8.766C37.2681 7.67775 36.847 6.32531 36.9173 4.94934L36.9916 3.49218C37.0118 3.09628 36.7808 2.73046 36.4146 2.5785L30.3723 0.0722775C30.0056 -0.0799725 29.5831 0.015465 29.3172 0.310028L28.3391 1.3934C27.2332 2.61834 25.6524 3.321 23.998 3.321C22.3477 3.321 20.7669 2.61843 19.6609 1.3934L18.6828 0.310028C18.4168 0.015465 17.9944 -0.0798788 17.6277 0.0722775L11.5853 2.57859C11.219 2.73047 10.9879 3.09637 11.0081 3.49237L11.0826 4.94953C11.1668 6.59775 10.5458 8.2124 9.37876 9.3794C8.21167 10.5465 6.59842 11.1671 4.94879 11.0833L3.49164 11.0089C3.09629 10.988 2.72973 11.2198 2.57785 11.5859L0.0715424 17.6285C-0.0804264 17.995 0.0148236 18.4176 0.309292 18.6835L1.39276 19.6616C2.6177 20.7676 3.32035 22.3484 3.32035 24.0027C3.32035 25.6531 2.61779 27.234 1.39276 28.3399L0.309292 29.318C0.0147299 29.5839 -0.0804264 30.0065 0.0715424 30.373L2.57785 36.4155C2.72973 36.7817 3.0961 37.0126 3.49164 36.9925L4.94879 36.9181C6.59729 36.8346 8.21167 37.455 9.37876 38.622C10.5458 39.789 11.1668 41.4036 11.0826 43.0518L11.0081 44.5089C10.9879 44.9049 11.219 45.2708 11.5853 45.4227L17.6277 47.929C17.9942 48.081 18.4166 47.9858 18.6828 47.6913L19.6597 46.6093C20.7664 45.3833 22.3484 44.6803 24 44.6803C25.6517 44.6803 27.2337 45.3834 28.3405 46.6093L29.3172 47.6913C29.4988 47.8924 29.7534 48.0006 30.0134 48.0006C30.1342 48.0006 30.256 47.9772 30.3723 47.9289L36.4149 45.4226C36.781 45.2708 37.0121 44.9049 36.9919 44.5089L36.9175 43.0517C36.8334 41.4035 37.4544 39.7888 38.6214 38.6218C39.7883 37.4548 41.4014 36.8344 43.0512 36.9179L44.5085 36.9923C44.9021 37.0122 45.2704 36.7815 45.4223 36.4152L47.9285 30.3727C48.0805 30.0065 47.9853 29.5839 47.6907 29.318Z" fill="url(#paint4_linear_6053_6022)"/>
</g>
<defs>
<linearGradient id="paint0_linear_6053_6022" x1="0" y1="48.0006" x2="30.9032" y2="-14.7759" gradientUnits="userSpaceOnUse">
<stop stop-color="#5D3CF2"/>
<stop offset="1" stop-color="#FD5631"/>
</linearGradient>
<linearGradient id="paint1_linear_6053_6022" x1="0" y1="48.0006" x2="30.9032" y2="-14.7759" gradientUnits="userSpaceOnUse">
<stop stop-color="#5D3CF2"/>
<stop offset="1" stop-color="#FD5631"/>
</linearGradient>
<linearGradient id="paint2_linear_6053_6022" x1="0" y1="48.0006" x2="30.9032" y2="-14.7759" gradientUnits="userSpaceOnUse">
<stop stop-color="#5D3CF2"/>
<stop offset="1" stop-color="#FD5631"/>
</linearGradient>
<linearGradient id="paint3_linear_6053_6022" x1="0" y1="48.0006" x2="30.9032" y2="-14.7759" gradientUnits="userSpaceOnUse">
<stop stop-color="#5D3CF2"/>
<stop offset="1" stop-color="#FD5631"/>
</linearGradient>
<linearGradient id="paint4_linear_6053_6022" x1="0" y1="48.0006" x2="30.9032" y2="-14.7759" gradientUnits="userSpaceOnUse">
<stop stop-color="#5D3CF2"/>
<stop offset="1" stop-color="#FD5631"/>
</linearGradient>
<clipPath id="clip0_6053_6022">
<rect width="48" height="48" fill="white"/>
</clipPath>
</defs>
</svg>
