<svg width="20" height="20" viewBox="0 0 20 20" fill="none" xmlns="http://www.w3.org/2000/svg">
<path fill-rule="evenodd" clip-rule="evenodd" d="M5 4.16667C4.53976 4.16667 4.16667 4.53976 4.16667 5V15C4.16667 15.4602 4.53976 15.8333 5 15.8333H15C15.4602 15.8333 15.8333 15.4602 15.8333 15V5C15.8333 4.53976 15.4602 4.16667 15 4.16667H5ZM2.5 5C2.5 3.61929 3.61929 2.5 5 2.5H15C16.3807 2.5 17.5 3.61929 17.5 5V15C17.5 16.3807 16.3807 17.5 15 17.5H5C3.61929 17.5 2.5 16.3807 2.5 15V5Z" fill="#FD5631"/>
<path fill-rule="evenodd" clip-rule="evenodd" d="M13.0893 7.74408C13.4147 8.06952 13.4147 8.59715 13.0893 8.92259L9.75593 12.2559C9.59965 12.4122 9.38768 12.5 9.16667 12.5C8.94566 12.5 8.7337 12.4122 8.57741 12.2559L6.91075 10.5893C6.58531 10.2638 6.58531 9.73618 6.91075 9.41075C7.23619 9.08531 7.76382 9.08531 8.08926 9.41075L9.16667 10.4882L11.9107 7.74408C12.2362 7.41864 12.7638 7.41864 13.0893 7.74408Z" fill="#FD5631"/>
</svg>
