<svg width="20" height="20" viewBox="0 0 20 20" fill="none" xmlns="http://www.w3.org/2000/svg">
<path fill-rule="evenodd" clip-rule="evenodd" d="M5 4.16667C4.53976 4.16667 4.16667 4.53976 4.16667 5V15C4.16667 15.4602 4.53976 15.8333 5 15.8333H15C15.4602 15.8333 15.8333 15.4602 15.8333 15V5C15.8333 4.53976 15.4602 4.16667 15 4.16667H5ZM2.5 5C2.5 3.61929 3.61929 2.5 5 2.5H15C16.3807 2.5 17.5 3.61929 17.5 5V15C17.5 16.3807 16.3807 17.5 15 17.5H5C3.61929 17.5 2.5 16.3807 2.5 15V5Z" fill="white"/>
</svg>
