<svg width="24" height="24" viewBox="0 0 24 24" fill="none" xmlns="http://www.w3.org/2000/svg">
<path fill-rule="evenodd" clip-rule="evenodd" d="M11.9929 1.0022C12.3735 1.0022 12.7211 1.2183 12.8896 1.55964L15.7428 7.34098L22.1223 8.26554C22.4992 8.32016 22.8123 8.58412 22.93 8.94633C23.0476 9.30855 22.9493 9.70613 22.6764 9.97177L18.0534 14.4717L19.1435 20.8261C19.2079 21.2015 19.0535 21.5808 18.7453 21.8045C18.4371 22.0282 18.0286 22.0574 17.6917 21.8799L11.9993 18.8803L6.29323 21.8803C5.95631 22.0575 5.54803 22.028 5.24008 21.8042C4.93213 21.5805 4.7779 21.2013 4.84226 20.8261L5.9323 14.4717L1.30935 9.97177C1.03646 9.70613 0.938133 9.30855 1.05576 8.94633C1.17338 8.58412 1.48654 8.32016 1.86344 8.26554L8.2429 7.34098L11.0961 1.55964C11.2646 1.2183 11.6122 1.0022 11.9929 1.0022Z" fill="black"/>
</svg>
