<svg width="24" height="24" viewBox="0 0 24 24" fill="none" xmlns="http://www.w3.org/2000/svg">
<path fill-rule="evenodd" clip-rule="evenodd" d="M5.16916 4.05635C5.27551 4.01905 5.3874 4 5.50011 4H18.5001C18.6128 4 18.7247 4.01905 18.8311 4.05635C19.1191 4.15737 19.3802 4.32297 19.5943 4.54048C19.8085 4.75799 19.97 5.02162 20.0665 5.31119C20.163 5.60076 20.192 5.90858 20.1512 6.21108C20.1104 6.51358 20.0009 6.80272 19.8311 7.05635C19.8036 7.09732 19.7732 7.1362 19.74 7.17267L15.0001 12.3866V19C15.0001 19.3788 14.7861 19.725 14.4473 19.8944C14.1085 20.0638 13.7031 20.0273 13.4001 19.8L9.40011 16.8C9.1483 16.6111 9.00011 16.3148 9.00011 16V12.3866L4.26017 7.17267C4.22701 7.1362 4.19659 7.09732 4.16916 7.05635C3.99934 6.80272 3.88983 6.51358 3.84902 6.21108C3.8082 5.90859 3.83716 5.60077 3.93369 5.31119C4.03021 5.02162 4.19174 4.75798 4.40588 4.54048C4.62003 4.32297 4.88112 4.15737 5.16916 4.05635ZM5.89702 6L10.74 11.3273C10.9074 11.5114 11.0001 11.7512 11.0001 12V15.5L13.0001 17V12C13.0001 11.7512 13.0928 11.5114 13.2602 11.3273L18.1032 6H5.89702Z" fill="black"/>
</svg>
