<svg width="18" height="18" viewBox="0 0 18 18" fill="none" xmlns="http://www.w3.org/2000/svg">
<path fill-rule="evenodd" clip-rule="evenodd" d="M0 2C0 0.895431 0.895431 0 2 0H6C7.10457 0 8 0.895431 8 2V6C8 7.10457 7.10457 8 6 8H2C0.895431 8 0 7.10457 0 6V2ZM6 2H2V6H6V2Z" fill="black"/>
<path fill-rule="evenodd" clip-rule="evenodd" d="M10 2C10 0.89543 10.8954 0 12 0H16C17.1046 0 18 0.89543 18 2V6C18 7.10457 17.1046 8 16 8H12C10.8954 8 10 7.10457 10 6V2ZM16 2H12V6H16V2Z" fill="black"/>
<path fill-rule="evenodd" clip-rule="evenodd" d="M0 12C0 10.8954 0.89543 9.99998 2 9.99998H6C7.10457 9.99998 8 10.8954 8 12V16C8 17.1045 7.10457 18 6 18H2C0.89543 18 0 17.1045 0 16V12ZM6 12H2V16H6V12Z" fill="black"/>
<path fill-rule="evenodd" clip-rule="evenodd" d="M10 12C10 10.8954 10.8954 9.99998 12 9.99998H16C17.1046 9.99998 18 10.8954 18 12V16C18 17.1045 17.1046 18 16 18H12C10.8954 18 10 17.1045 10 16V12ZM16 12H12V16H16V12Z" fill="black"/>
</svg>
