<svg width="20" height="18" viewBox="0 0 20 18" fill="none" xmlns="http://www.w3.org/2000/svg">
<path d="M18.2881 10.2048L18.2791 10.2157L18.2751 10.2205C18.2332 10.2712 18.1871 10.3169 18.1381 10.3571L10.7119 17.7106C10.3222 18.0965 9.69437 18.0964 9.30466 17.7105L9.30387 17.7098L1.81161 10.2909C1.21978 9.71418 0.75351 9.02142 0.442088 8.25601C0.130092 7.4892 -0.0197231 6.66609 0.00207987 5.83854C0.023883 5.01098 0.216832 4.1969 0.568771 3.44758C0.920709 2.69825 1.42401 2.02991 2.04697 1.48464C2.66993 0.939366 3.39905 0.52897 4.18841 0.279283C4.97778 0.0295962 5.8103 -0.0539749 6.63355 0.0338282C7.4568 0.121631 8.25297 0.378908 8.9719 0.789466C9.34567 1.00292 9.69436 1.25539 10.0124 1.54199C10.3302 1.25886 10.678 1.00961 11.0505 0.799038C11.7689 0.392837 12.5635 0.139277 13.3844 0.0542174C14.2053 -0.0308419 15.035 0.0544303 15.8215 0.3047C16.608 0.554969 17.3343 0.964851 17.9551 1.5087C18.5758 2.05256 19.0777 2.71868 19.4291 3.46537C19.7806 4.21207 19.9741 5.02327 19.9976 5.8482C20.021 6.67313 19.874 7.49401 19.5655 8.25948C19.3854 8.70655 19.0321 9.22094 18.7829 9.56279C18.648 9.7478 18.5225 9.9105 18.4307 10.0269C18.3846 10.0853 18.3467 10.1326 18.3198 10.1658L18.2881 10.2048Z" fill="black"/>
</svg>
