<svg width="20" height="18" viewBox="0 0 20 18" fill="none" xmlns="http://www.w3.org/2000/svg">
<path fill-rule="evenodd" clip-rule="evenodd" d="M6.42145 2.02255C5.87269 1.96402 5.31775 2.01973 4.79158 2.18616C4.26542 2.35259 3.77944 2.62614 3.36423 2.98957C2.94902 3.353 2.61359 3.79843 2.37905 4.29782C2.1445 4.7972 2.01592 5.33972 2.00139 5.89121C1.98686 6.4427 2.08669 6.99124 2.29462 7.50227C2.50254 8.0133 2.81405 8.47577 3.20954 8.86054L3.21586 8.86669L10.0083 15.5927L16.7873 8.88006C16.8071 8.85546 16.8317 8.82463 16.8602 8.78858C16.9408 8.68635 17.0504 8.54425 17.1668 8.3846C17.4201 8.03713 17.6336 7.70275 17.7105 7.51201C17.916 7.00188 18.014 6.45482 17.9984 5.90508C17.9827 5.35534 17.8538 4.81474 17.6196 4.31711C17.3853 3.81947 17.0509 3.37552 16.6371 3.01304C16.2234 2.65056 15.7392 2.37735 15.215 2.21053C14.6908 2.04371 14.1377 1.98687 13.5905 2.04357C13.0433 2.10027 12.5137 2.26928 12.0348 2.54003C11.5559 2.81078 11.1381 3.17743 10.8075 3.61702C10.618 3.86899 10.3208 4.01684 10.0055 4.01597C9.69027 4.01509 9.39387 3.86558 9.20578 3.61256C8.87661 3.16976 8.45929 2.79988 7.9801 2.52622C7.5009 2.25257 6.97021 2.08108 6.42145 2.02255ZM18.2721 10.2183C18.275 10.2206 18.2751 10.2205 18.2751 10.2205L18.2791 10.2157L18.2881 10.2048L18.3198 10.1658C18.3467 10.1326 18.3846 10.0853 18.4307 10.0269C18.5225 9.9105 18.648 9.7478 18.7829 9.56279C19.0321 9.22094 19.3854 8.70655 19.5655 8.25948C19.874 7.49401 20.021 6.67313 19.9976 5.8482C19.9741 5.02327 19.7806 4.21207 19.4291 3.46537C19.0777 2.71868 18.5758 2.05256 17.9551 1.5087C17.3343 0.964851 16.608 0.554969 15.8215 0.3047C15.035 0.0544303 14.2053 -0.0308419 13.3844 0.0542174C12.5635 0.139277 11.7689 0.392837 11.0505 0.799038C10.678 1.00961 10.3302 1.25886 10.0124 1.54199C9.69436 1.25539 9.34567 1.00292 8.9719 0.789466C8.25297 0.378908 7.4568 0.121631 6.63355 0.0338282C5.8103 -0.0539749 4.97778 0.0295962 4.18841 0.279283C3.39905 0.52897 2.66993 0.939366 2.04697 1.48464C1.42401 2.02991 0.920709 2.69825 0.568771 3.44758C0.216832 4.1969 0.023883 5.01098 0.00207987 5.83854C-0.0197231 6.66609 0.130092 7.4892 0.442088 8.25601C0.75351 9.02142 1.21978 9.71418 1.81161 10.2909L9.30387 17.7098L9.30466 17.7105C9.69437 18.0964 10.3222 18.0965 10.7119 17.7106L18.1381 10.3571C18.1871 10.3169 18.2332 10.2712 18.2751 10.2205L18.2721 10.2183Z" fill="black"/>
</svg>
