<svg width="14" height="14" viewBox="0 0 14 14" fill="none" xmlns="http://www.w3.org/2000/svg">
<path fill-rule="evenodd" clip-rule="evenodd" d="M4.91259 3.51307C4.59248 3.47893 4.26877 3.51143 3.96184 3.60851C3.65491 3.7056 3.37142 3.86517 3.12922 4.07717C2.88701 4.28917 2.69134 4.549 2.55452 4.84031C2.41771 5.13162 2.3427 5.44809 2.33422 5.76979C2.32575 6.0915 2.38399 6.41147 2.50528 6.70957C2.62657 7.00768 2.80828 7.27745 3.03898 7.5019L3.04267 7.50549L7.00494 11.429L10.9594 7.51329C10.9709 7.49894 10.9853 7.48095 11.0018 7.45992C11.0489 7.40029 11.1128 7.3174 11.1807 7.22427C11.3285 7.02158 11.453 6.82652 11.4978 6.71526C11.6178 6.41768 11.6749 6.09857 11.6658 5.77788C11.6567 5.4572 11.5814 5.14185 11.4448 4.85156C11.3082 4.56128 11.1131 4.30231 10.8717 4.09086C10.6304 3.87941 10.348 3.72004 10.0422 3.62273C9.73637 3.52542 9.41376 3.49226 9.09455 3.52533C8.77534 3.55841 8.46639 3.657 8.18705 3.81494C7.90771 3.97287 7.66399 4.18675 7.47115 4.44318C7.36061 4.59016 7.18722 4.67641 7.00332 4.6759C6.81941 4.67539 6.64651 4.58818 6.53679 4.44058C6.34477 4.18228 6.10133 3.96651 5.8218 3.80688C5.54227 3.64725 5.2327 3.54721 4.91259 3.51307ZM11.8255 8.2939C11.8272 8.2953 11.8272 8.29523 11.8272 8.29523L11.8295 8.29242L11.8348 8.28603L11.8533 8.26328C11.869 8.24392 11.8911 8.21635 11.918 8.18228C11.9715 8.11438 12.0448 8.01947 12.1234 7.91155C12.2688 7.71214 12.4749 7.41207 12.58 7.15128C12.7599 6.70476 12.8457 6.22591 12.832 5.7447C12.8183 5.26349 12.7054 4.79029 12.5004 4.35472C12.2954 3.91915 12.0027 3.53058 11.6405 3.21333C11.2784 2.89608 10.8547 2.65698 10.3959 2.51099C9.93717 2.365 9.4532 2.31526 8.97431 2.36488C8.49543 2.4145 8.03194 2.56241 7.61285 2.79936C7.39559 2.92219 7.19269 3.06759 7.00733 3.23275C6.82179 3.06557 6.61839 2.91829 6.40036 2.79377C5.98098 2.55428 5.51655 2.4042 5.03632 2.35299C4.55609 2.30177 4.07045 2.35052 3.60999 2.49617C3.14953 2.64182 2.7242 2.88122 2.36081 3.19929C1.99742 3.51737 1.70383 3.90723 1.49853 4.34434C1.29323 4.78145 1.18068 5.25632 1.16796 5.73906C1.15524 6.22181 1.24264 6.70195 1.42463 7.14926C1.6063 7.59575 1.87829 7.99986 2.22352 8.33625L6.59401 12.6639L6.59446 12.6644C6.8218 12.8895 7.18805 12.8895 7.41538 12.6644L11.7473 8.37492C11.7759 8.35144 11.8028 8.32481 11.8272 8.29523L11.8255 8.2939Z" fill="black"/>
</svg>
