<svg width="18" height="18" viewBox="0 0 18 18" fill="none" xmlns="http://www.w3.org/2000/svg">
<path fill-rule="evenodd" clip-rule="evenodd" d="M3 2.00024C2.44772 2.00024 2 2.44796 2 3.00024V5.00024C2 5.55253 2.44772 6.00024 3 6.00024H15C15.5523 6.00024 16 5.55253 16 5.00024V3.00024C16 2.44796 15.5523 2.00024 15 2.00024H3ZM0 3.00024C0 1.34339 1.34315 0.000244141 3 0.000244141H15C16.6569 0.000244141 18 1.34339 18 3.00024V5.00024C18 6.6571 16.6569 8.00024 15 8.00024H3C1.34315 8.00024 0 6.6571 0 5.00024V3.00024Z" fill="black"/>
<path fill-rule="evenodd" clip-rule="evenodd" d="M3 11.9999C2.44771 11.9999 2 12.4477 2 12.9999V14.9999C2 15.5522 2.44771 15.9999 3 15.9999H15C15.5523 15.9999 16 15.5522 16 14.9999V12.9999C16 12.4477 15.5523 11.9999 15 11.9999H3ZM0 12.9999C0 11.3431 1.34315 9.99995 3 9.99995H15C16.6569 9.99995 18 11.3431 18 12.9999V14.9999C18 16.6568 16.6569 17.9999 15 17.9999H3C1.34315 17.9999 0 16.6568 0 14.9999V12.9999Z" fill="black"/>
</svg>
