<svg width="32" height="32" viewBox="0 0 32 32" fill="none" xmlns="http://www.w3.org/2000/svg">
<path d="M16 32C24.8366 32 32 24.8366 32 16C32 7.16344 24.8366 0 16 0C7.16344 0 0 7.16344 0 16C0 24.8366 7.16344 32 16 32Z" fill="#FD5631"/>
<path opacity="0.55" d="M31.6561 19.3033L21.9873 9.63445C18.8217 6.46886 13.6948 6.46886 10.5292 9.63445L10.4948 9.66886C7.32921 12.8344 7.32921 17.9613 10.4948 21.1269L20.6797 31.3119C26.1851 29.6258 30.4518 25.0151 31.6561 19.3033Z" fill="#BE1E2D"/>
<path d="M26.3913 22.1938L23.2257 19.0282C23.8106 17.8927 24.1891 16.5507 24.1891 15.2088C24.1891 10.7357 20.5762 7.08838 16.0687 7.08838C11.5612 7.08838 7.98267 10.7357 7.98267 15.2432C7.98267 19.7507 11.5956 23.3637 16.1031 23.3637C17.445 23.3637 18.787 22.9852 19.9224 22.4002L23.088 25.5658C24.0515 26.5292 25.4622 26.5292 26.4257 25.5658C27.2515 24.6024 27.2515 23.1572 26.3913 22.1938ZM16.1031 21.4368C12.6622 21.4368 9.90955 18.6841 9.90955 15.2432C9.90955 11.8024 12.6622 9.04967 16.1031 9.04967C19.544 9.04967 22.2966 11.8024 22.2966 15.2432C22.2966 18.6841 19.544 21.4368 16.1031 21.4368Z" fill="white"/>
</svg>
