<svg width="20" height="20" viewBox="0 0 20 20" fill="none" xmlns="http://www.w3.org/2000/svg">
<path fill-rule="evenodd" clip-rule="evenodd" d="M5.86268 3.38262C5.83628 3.40737 5.83317 3.42688 5.83317 3.43758V16.5626C5.83317 16.5733 5.83628 16.5928 5.86268 16.6175C5.89001 16.6432 5.93653 16.6667 5.99984 16.6667H13.9998C14.0631 16.6667 14.1097 16.6432 14.137 16.6175C14.1634 16.5928 14.1665 16.5733 14.1665 16.5626V3.43758C14.1665 3.42688 14.1634 3.40737 14.137 3.38262C14.1097 3.357 14.0631 3.33341 13.9998 3.33341H11.8269C11.8311 3.36745 11.8333 3.40212 11.8333 3.4373C11.8333 3.89754 11.4602 4.27064 11 4.27064H8.99999C8.53975 4.27064 8.16665 3.89754 8.16665 3.4373C8.16665 3.40212 8.16883 3.36745 8.17306 3.33341H5.99984C5.93653 3.33341 5.89001 3.357 5.86268 3.38262ZM4.1665 3.43758C4.1665 2.40973 5.03879 1.66675 5.99984 1.66675H13.9998C14.9609 1.66675 15.8332 2.40973 15.8332 3.43758V16.5626C15.8332 17.5904 14.9609 18.3334 13.9998 18.3334H5.99984C5.03879 18.3334 4.1665 17.5904 4.1665 16.5626V3.43758ZM9.99991 13.854C10.4601 13.854 10.8332 14.2271 10.8332 14.6873V14.6967C10.8332 15.1569 10.4601 15.53 9.99991 15.53C9.53967 15.53 9.16658 15.1569 9.16658 14.6967V14.6873C9.16658 14.2271 9.53967 13.854 9.99991 13.854Z" fill="black"/>
</svg>
