<svg width="20" height="20" viewBox="0 0 20 20" fill="none" xmlns="http://www.w3.org/2000/svg">
<path fill-rule="evenodd" clip-rule="evenodd" d="M3 3.00005C2.73478 3.00005 2.48043 3.10541 2.29289 3.29294C2.11141 3.47443 2.00688 3.71849 2.00033 3.97442C2.23032 7.61835 3.78159 11.0538 6.36394 13.6361C8.94628 16.2185 12.3817 17.7697 16.0256 17.9997C16.2816 17.9932 16.5256 17.8886 16.7071 17.7072C16.8946 17.5196 17 17.2653 17 17V13.6771L13.4193 12.2448L12.3575 14.0145C12.0897 14.4608 11.5244 14.6271 11.0577 14.3969C8.68874 13.2286 6.77146 11.3113 5.60314 8.94236C5.37294 8.47561 5.53924 7.91032 5.9855 7.64255L7.75523 6.58072L6.32297 3.00005H3ZM0.87868 1.87873C1.44129 1.31612 2.20435 1.00005 3 1.00005H7C7.4089 1.00005 7.77661 1.249 7.92848 1.62866L9.92848 6.62866C10.1108 7.08437 9.93537 7.60502 9.5145 7.85754L7.8405 8.86194C8.66436 10.2056 9.79449 11.3357 11.1381 12.1596L12.1425 10.4856C12.395 10.0647 12.9157 9.88928 13.3714 10.0716L18.3714 12.0716C18.751 12.2234 19 12.5911 19 13V17C19 17.7957 18.6839 18.5588 18.1213 19.1214C17.5587 19.684 16.7957 20 16 20C15.9798 20 15.9595 19.9994 15.9393 19.9982C11.7948 19.7463 7.88576 17.9864 4.94972 15.0503C2.01369 12.1143 0.253707 8.20524 0.00184143 4.06071C0.000614107 4.04051 0 4.02028 0 4.00005C0 3.2044 0.31607 2.44134 0.87868 1.87873Z" fill="black"/>
<path fill-rule="evenodd" clip-rule="evenodd" d="M12 5.00005C12 4.44776 12.4477 4.00005 13 4.00005C13.7956 4.00005 14.5587 4.31612 15.1213 4.87873C15.6839 5.44134 16 6.2044 16 7.00005C16 7.55233 15.5523 8.00005 15 8.00005C14.4477 8.00005 14 7.55233 14 7.00005C14 6.73483 13.8946 6.48048 13.7071 6.29294C13.5196 6.10541 13.2652 6.00005 13 6.00005C12.4477 6.00005 12 5.55233 12 5.00005Z" fill="black"/>
<path fill-rule="evenodd" clip-rule="evenodd" d="M12 1C12 0.447715 12.4477 0 13 0C14.8565 0 16.637 0.737498 17.9497 2.05025C19.2625 3.36301 20 5.14349 20 7C20 7.55229 19.5523 8 19 8C18.4477 8 18 7.55229 18 7C18 5.67392 17.4732 4.40215 16.5355 3.46447C15.5979 2.52678 14.3261 2 13 2C12.4477 2 12 1.55228 12 1Z" fill="black"/>
</svg>
