<svg width="14" height="16" viewBox="0 0 14 16" fill="none" xmlns="http://www.w3.org/2000/svg">
<path fill-rule="evenodd" clip-rule="evenodd" d="M6.99998 5.24993C6.17156 5.24993 5.49998 5.9215 5.49998 6.74993C5.49998 7.57836 6.17156 8.24993 6.99998 8.24993C7.82841 8.24993 8.49998 7.57836 8.49998 6.74993C8.49998 5.9215 7.82841 5.24993 6.99998 5.24993ZM3.99998 6.74993C3.99998 5.09308 5.34313 3.74993 6.99998 3.74993C8.65684 3.74993 9.99998 5.09308 9.99998 6.74993C9.99998 8.40679 8.65684 9.74993 6.99998 9.74993C5.34313 9.74993 3.99998 8.40679 3.99998 6.74993Z" fill="white"/>
<path fill-rule="evenodd" clip-rule="evenodd" d="M7 1.50012C5.96166 1.50012 4.94664 1.80802 4.08329 2.38489C3.21994 2.96175 2.54703 3.78168 2.14966 4.74097C1.75229 5.70027 1.64831 6.75585 1.85086 7.77425C2.05341 8.79264 2.5534 9.7281 3.2876 10.4623L6.47032 13.6443C6.61095 13.7848 6.8016 13.8637 7.00038 13.8637C7.19916 13.8637 7.38981 13.7848 7.53044 13.6443L10.7124 10.4623C11.4466 9.7281 11.9466 8.79263 12.1491 7.77425C12.3517 6.75585 12.2477 5.70027 11.8503 4.74097C11.453 3.78168 10.7801 2.96175 9.91672 2.38489C9.05337 1.80802 8.03834 1.50012 7 1.50012ZM11.7731 11.523C12.7171 10.5789 13.3599 9.37621 13.6203 8.06685C13.8808 6.75749 13.7471 5.40031 13.2362 4.16693C12.7253 2.93355 11.8601 1.87936 10.7501 1.13768C9.64004 0.395994 8.33501 0.00012207 7 0.00012207C5.66499 0.00012207 4.35996 0.395994 3.24994 1.13768C2.13992 1.87936 1.27475 2.93355 0.763849 4.16693C0.252948 5.40031 0.119255 6.75749 0.379677 8.06685C0.640099 9.37621 1.28294 10.5789 2.22691 11.523L5.40999 14.7053C5.83188 15.1268 6.40403 15.3637 7.00038 15.3637C7.59672 15.3637 8.16867 15.127 8.59056 14.7055L11.7731 11.523Z" fill="white"/>
</svg>
