<svg width="18" height="18" viewBox="0 0 18 18" fill="none" xmlns="http://www.w3.org/2000/svg">
<g opacity="0.7">
<path fill-rule="evenodd" clip-rule="evenodd" d="M8.99998 6.74981C8.17156 6.74981 7.49998 7.42138 7.49998 8.24981C7.49998 9.07824 8.17156 9.74981 8.99998 9.74981C9.82841 9.74981 10.5 9.07824 10.5 8.24981C10.5 7.42138 9.82841 6.74981 8.99998 6.74981ZM5.99998 8.24981C5.99998 6.59295 7.34313 5.24981 8.99998 5.24981C10.6568 5.24981 12 6.59295 12 8.24981C12 9.90666 10.6568 11.2498 8.99998 11.2498C7.34313 11.2498 5.99998 9.90666 5.99998 8.24981Z" fill="black"/>
<path fill-rule="evenodd" clip-rule="evenodd" d="M9 3C7.96166 3 6.94664 3.3079 6.08329 3.88477C5.21994 4.46163 4.54703 5.28155 4.14966 6.24085C3.75229 7.20015 3.64831 8.25573 3.85086 9.27412C4.05341 10.2925 4.5534 11.228 5.2876 11.9622L8.47032 15.1442C8.61095 15.2847 8.8016 15.3636 9.00038 15.3636C9.19916 15.3636 9.38981 15.2847 9.53044 15.1442L12.7124 11.9622C13.4466 11.228 13.9466 10.2925 14.1491 9.27412C14.3517 8.25573 14.2477 7.20015 13.8503 6.24085C13.453 5.28155 12.7801 4.46163 11.9167 3.88477C11.0534 3.3079 10.0383 3 9 3ZM13.7731 13.0228C14.7171 12.0788 15.3599 10.8761 15.6203 9.56673C15.8808 8.25737 15.7471 6.90019 15.2362 5.66681C14.7253 4.43343 13.8601 3.37924 12.7501 2.63756C11.64 1.89587 10.335 1.5 9 1.5C7.66499 1.5 6.35996 1.89587 5.24994 2.63756C4.13992 3.37924 3.27475 4.43343 2.76385 5.66681C2.25295 6.90019 2.11925 8.25737 2.37968 9.56673C2.6401 10.8761 3.28294 12.0788 4.22691 13.0228L7.40999 16.2052C7.83188 16.6266 8.40403 16.8636 9.00038 16.8636C9.59672 16.8636 10.1687 16.6268 10.5906 16.2054L13.7731 13.0228Z" fill="black"/>
</g>
</svg>
