<svg width="18" height="21" viewBox="0 0 18 21" fill="none" xmlns="http://www.w3.org/2000/svg">
<path fill-rule="evenodd" clip-rule="evenodd" d="M8.99998 6.99975C7.89541 6.99975 6.99998 7.89518 6.99998 8.99975C6.99998 10.1043 7.89541 10.9997 8.99998 10.9997C10.1045 10.9997 11 10.1043 11 8.99975C11 7.89518 10.1045 6.99975 8.99998 6.99975ZM4.99998 8.99975C4.99998 6.79061 6.79084 4.99975 8.99998 4.99975C11.2091 4.99975 13 6.79061 13 8.99975C13 11.2089 11.2091 12.9997 8.99998 12.9997C6.79084 12.9997 4.99998 11.2089 4.99998 8.99975Z" fill="black"/>
<path fill-rule="evenodd" clip-rule="evenodd" d="M9 2C7.61555 2 6.26219 2.41053 5.11105 3.17969C3.95991 3.94884 3.06271 5.04207 2.53288 6.32113C2.00306 7.60019 1.86441 9.00764 2.13448 10.3655C2.40455 11.7234 3.0712 12.9706 4.05013 13.9496L8.29375 18.1922C8.48126 18.3796 8.73546 18.4848 9.0005 18.4848C9.26554 18.4848 9.51975 18.3796 9.70725 18.1922L13.9499 13.9496C14.9288 12.9706 15.5955 11.7233 15.8655 10.3655C16.1356 9.00764 15.997 7.60019 15.4671 6.32113C14.9373 5.04207 14.0401 3.94884 12.889 3.17969C11.7378 2.41053 10.3845 2 9 2ZM15.3641 15.3638C16.6228 14.1051 17.4799 12.5015 17.8271 10.7556C18.1743 9.00982 17.9961 7.20025 17.3149 5.55574C16.6337 3.91123 15.4801 2.50565 14.0001 1.51674C12.5201 0.527829 10.78 0 9 0C7.21999 0 5.47995 0.527829 3.99992 1.51674C2.51989 2.50565 1.36633 3.91123 0.685133 5.55574C0.00393033 7.20025 -0.174327 9.00982 0.172903 10.7556C0.520132 12.5015 1.37725 14.1051 2.63588 15.3638L6.87998 19.6069C7.4425 20.1688 8.20538 20.4848 9.0005 20.4848C9.79563 20.4848 10.5582 20.1691 11.1208 19.6072L15.3641 15.3638Z" fill="black"/>
</svg>
