<svg width="20" height="20" viewBox="0 0 20 20" fill="none" xmlns="http://www.w3.org/2000/svg">
<path fill-rule="evenodd" clip-rule="evenodd" d="M10.0001 3.33332C6.31818 3.33332 3.33341 6.31809 3.33341 9.99999C3.33341 13.6819 6.31818 16.6667 10.0001 16.6667C13.682 16.6667 16.6667 13.6819 16.6667 9.99999C16.6667 6.31809 13.682 3.33332 10.0001 3.33332ZM1.66675 9.99999C1.66675 5.39762 5.39771 1.66666 10.0001 1.66666C14.6025 1.66666 18.3334 5.39762 18.3334 9.99999C18.3334 14.6024 14.6025 18.3333 10.0001 18.3333C5.39771 18.3333 1.66675 14.6024 1.66675 9.99999Z" fill="#FD5631"/>
<path d="M13.3334 9.99999C13.3334 11.8409 11.841 13.3333 10.0001 13.3333C8.15913 13.3333 6.66675 11.8409 6.66675 9.99999C6.66675 8.15904 8.15913 6.66666 10.0001 6.66666C11.841 6.66666 13.3334 8.15904 13.3334 9.99999Z" fill="#FD5631"/>
</svg>
