<svg width="16" height="16" viewBox="0 0 16 16" fill="none" xmlns="http://www.w3.org/2000/svg">
<path fill-rule="evenodd" clip-rule="evenodd" d="M6.5 2C4.01472 2 2 4.01472 2 6.5C2 8.98528 4.01472 11 6.5 11C8.98528 11 11 8.98528 11 6.5C11 4.01472 8.98528 2 6.5 2ZM0.5 6.5C0.5 3.18629 3.18629 0.5 6.5 0.5C9.81371 0.5 12.5 3.18629 12.5 6.5C12.5 9.81371 9.81371 12.5 6.5 12.5C3.18629 12.5 0.5 9.81371 0.5 6.5Z" fill="white"/>
<path fill-rule="evenodd" clip-rule="evenodd" d="M9.71967 9.71967C10.0126 9.42678 10.4874 9.42678 10.7803 9.71967L15.2803 14.2197C15.5732 14.5126 15.5732 14.9874 15.2803 15.2803C14.9874 15.5732 14.5126 15.5732 14.2197 15.2803L9.71967 10.7803C9.42678 10.4874 9.42678 10.0126 9.71967 9.71967Z" fill="white"/>
</svg>
