<svg width="20" height="20" viewBox="0 0 20 20" fill="none" xmlns="http://www.w3.org/2000/svg">
<path fill-rule="evenodd" clip-rule="evenodd" d="M18.0889 1.90914C18.4143 2.23458 18.4143 2.76221 18.0889 3.08765L8.92223 12.2543C8.59679 12.5798 8.06915 12.5798 7.74372 12.2543C7.41828 11.9289 7.41828 11.4012 7.74372 11.0758L16.9104 1.90914C17.2358 1.5837 17.7635 1.5837 18.0889 1.90914Z" fill="black"/>
<path fill-rule="evenodd" clip-rule="evenodd" d="M18.0889 1.90914C18.3174 2.13761 18.3932 2.47754 18.2834 2.78143L12.8668 17.7814C12.8589 17.8032 12.8502 17.8246 12.8406 17.8456C12.7375 18.0704 12.5721 18.2609 12.3639 18.3945C12.1558 18.5281 11.9137 18.5991 11.6663 18.5991C11.419 18.5991 11.1769 18.5281 10.9687 18.3945C10.7655 18.2641 10.6031 18.0795 10.4996 17.8616L7.71186 12.2862L2.13642 9.49848C1.91856 9.395 1.73391 9.23253 1.60352 9.02935C1.46994 8.82119 1.39893 8.57906 1.39893 8.33173C1.39893 8.0844 1.46994 7.84226 1.60352 7.63411C1.7371 7.42595 1.92764 7.26053 2.15249 7.15749C2.17349 7.14786 2.19488 7.13911 2.21661 7.13127L17.2166 1.7146C17.5205 1.60486 17.8604 1.68068 18.0889 1.90914ZM3.64278 8.38827L8.70566 10.9197C8.86694 11.0003 8.99771 11.1311 9.07834 11.2924L11.6098 16.3553L16.1129 3.88518L3.64278 8.38827Z" fill="black"/>
</svg>
