<svg width="20" height="20" viewBox="0 0 20 20" fill="none" xmlns="http://www.w3.org/2000/svg">
<path fill-rule="evenodd" clip-rule="evenodd" d="M4 8C2.89543 8 2 8.89543 2 10C2 11.1046 2.89543 12 4 12C5.10457 12 6 11.1046 6 10C6 8.89543 5.10457 8 4 8ZM0 10C0 7.79086 1.79086 6 4 6C6.20914 6 8 7.79086 8 10C8 12.2091 6.20914 14 4 14C1.79086 14 0 12.2091 0 10Z" fill="black"/>
<path fill-rule="evenodd" clip-rule="evenodd" d="M16 2C14.8954 2 14 2.89543 14 4C14 5.10457 14.8954 6 16 6C17.1046 6 18 5.10457 18 4C18 2.89543 17.1046 2 16 2ZM12 4C12 1.79086 13.7909 0 16 0C18.2091 0 20 1.79086 20 4C20 6.20914 18.2091 8 16 8C13.7909 8 12 6.20914 12 4Z" fill="black"/>
<path fill-rule="evenodd" clip-rule="evenodd" d="M16 14C14.8954 14 14 14.8954 14 16C14 17.1046 14.8954 18 16 18C17.1046 18 18 17.1046 18 16C18 14.8954 17.1046 14 16 14ZM12 16C12 13.7909 13.7909 12 16 12C18.2091 12 20 13.7909 20 16C20 18.2091 18.2091 20 16 20C13.7909 20 12 18.2091 12 16Z" fill="black"/>
<path fill-rule="evenodd" clip-rule="evenodd" d="M14.189 4.84206C14.4419 5.33303 14.2489 5.93607 13.758 6.18899L7.15796 9.58899C6.66699 9.84191 6.06395 9.64894 5.81103 9.15797C5.5581 8.667 5.75108 8.06396 6.24204 7.81104L12.842 4.41104C13.333 4.15812 13.9361 4.35109 14.189 4.84206Z" fill="black"/>
<path fill-rule="evenodd" clip-rule="evenodd" d="M5.81103 10.8421C6.06395 10.3511 6.66699 10.1581 7.15796 10.411L13.758 13.811C14.2489 14.064 14.4419 14.667 14.189 15.158C13.9361 15.6489 13.333 15.8419 12.842 15.589L6.24204 12.189C5.75108 11.9361 5.5581 11.333 5.81103 10.8421Z" fill="black"/>
</svg>
