<svg width="48" height="48" viewBox="0 0 48 48" fill="none" xmlns="http://www.w3.org/2000/svg">
<g clip-path="url(#clip0_6053_6028)">
<path d="M27.0316 20.0634C27.0316 18.3919 25.6718 17.0322 24.0004 17.0322C22.329 17.0322 20.9692 18.392 20.9692 20.0634C20.9692 21.7348 22.329 23.0946 24.0004 23.0946C25.6718 23.0946 27.0316 21.7348 27.0316 20.0634ZM22.8441 20.0634C22.8441 19.4258 23.3628 18.9072 24.0003 18.9072C24.6378 18.9072 25.1565 19.4259 25.1565 20.0634C25.1565 20.7009 24.6378 21.2196 24.0003 21.2196C23.3628 21.2196 22.8441 20.7009 22.8441 20.0634Z" fill="url(#paint0_linear_6053_6028)"/>
<path d="M47.9271 33.7887L46.3862 30.109L47.2239 28.8326C47.9169 27.7766 48.1217 26.4726 47.7859 25.255L47.0072 22.4319C46.6659 21.1943 45.8851 20.1276 44.8085 19.4283C44.635 19.3156 44.4301 19.2652 44.2262 19.2809C43.7855 10.0489 37.0746 2.18544 27.9436 0.382644C27.4359 0.282239 26.9425 0.612892 26.8422 1.12082C26.7419 1.62876 27.0723 2.12188 27.5804 2.22219C36.1529 3.91473 42.3749 11.4959 42.3749 20.2486C42.3749 20.5079 42.3674 20.7688 42.3566 21.0286L40.3992 22.0742C40.4658 21.4692 40.4999 20.8584 40.4999 20.2486C40.4999 19.2308 40.4067 18.2344 40.2294 17.267C40.2255 17.2405 40.2204 17.2144 40.2143 17.1885C38.7753 9.54756 32.0528 3.7488 24.0001 3.7488C15.944 3.7488 9.21914 9.55252 7.78403 17.1982C7.77915 17.2201 7.77465 17.2419 7.77137 17.2641C7.59372 18.2325 7.50025 19.2298 7.50025 20.2486C7.50025 20.8587 7.53447 21.4692 7.60103 22.0742L5.64261 21.0282C5.63183 20.7693 5.62527 20.5081 5.62527 20.2486C5.62527 11.4847 11.8568 3.90161 20.4424 2.21778C20.9504 2.11813 21.2816 1.62548 21.1819 1.11736C21.0822 0.609423 20.5902 0.278208 20.0815 0.377863C10.9362 2.17147 4.21481 10.0372 3.77391 19.281C3.57001 19.2653 3.36517 19.3156 3.19164 19.4284C2.11512 20.1277 1.33428 21.1944 0.992939 22.432L0.214259 25.2551C-0.121643 26.4727 0.083292 27.7767 0.776285 28.8327L1.61393 30.1091L0.0729796 33.7887C-0.126987 34.2663 0.0981044 34.8156 0.575662 35.0155C0.693974 35.0651 0.816597 35.0886 0.937346 35.0886C1.30391 35.0886 1.65209 34.8721 1.80256 34.5128L3.23636 31.0887L7.31388 31.9488L3.7756 46.8441C3.65598 47.3479 3.96732 47.8533 4.47103 47.973C4.54387 47.9903 4.61672 47.9985 4.68843 47.9985C5.11274 47.9985 5.4974 47.7083 5.59977 47.2775L8.83383 33.6631C12.6562 37.9772 18.1764 40.4983 24 40.4983C27.2246 40.4983 30.4334 39.7214 33.2796 38.2516C35.4977 37.106 37.5054 35.5374 39.1663 33.6639L42.4001 47.2774C42.5025 47.7083 42.8871 47.9984 43.3115 47.9984C43.3832 47.9984 43.456 47.9901 43.5289 47.9729C44.0327 47.8532 44.344 47.3478 44.2243 46.844L40.6862 31.9489L44.7637 31.0888L46.1975 34.5129C46.348 34.8723 46.6961 35.0886 47.0627 35.0886C47.1834 35.0886 47.3061 35.0651 47.4244 35.0156C47.902 34.8156 48.127 34.2663 47.9271 33.7887ZM43.9426 22.3072C44.0862 22.2304 44.2074 22.1176 44.2942 21.9797L44.5113 21.635C44.8306 22.0079 45.0669 22.4491 45.1997 22.9305L45.9783 25.7538C46.1708 26.4515 46.0534 27.1989 45.6563 27.8041L44.7574 29.1739L39.8637 30.2063L38.9971 29.3155C38.3421 28.6421 37.9814 27.754 37.9814 26.8145V24.5534C37.9814 24.2756 38.1692 24.0331 38.4383 23.9637L38.659 23.9067C39.324 24.2941 40.1644 24.3253 40.8633 23.9519L43.9426 22.3072ZM11.7821 23.823H17.3498C19.0524 23.823 20.4376 25.2082 20.4376 26.9108V34.4379C16.8813 33.5537 13.7686 31.356 11.7186 28.1892C11.8334 27.7452 11.8938 27.2843 11.8938 26.8146V24.5534C11.8937 24.3004 11.8536 24.0553 11.7821 23.823ZM17.3498 21.948H9.47311C9.40814 21.3853 9.37514 20.8168 9.37514 20.2486C9.37514 19.5417 9.42661 18.8466 9.52401 18.1662L19.0431 15.8694C22.2859 15.0871 25.7141 15.0871 28.9569 15.8694L38.476 18.1661C38.5734 18.8465 38.6249 19.5417 38.6249 20.2486C38.6249 20.8167 38.5914 21.3854 38.5264 21.948H30.6504C27.9139 21.948 25.6876 24.1743 25.6876 26.9108V34.776C25.1318 34.8395 24.569 34.8735 24.0001 34.8735C23.4312 34.8735 22.8684 34.8395 22.3126 34.776V26.9108C22.3126 24.1743 20.0863 21.948 17.3498 21.948ZM27.5626 26.9107C27.5626 25.2082 28.9477 23.8229 30.6504 23.8229H36.2181C36.1466 24.0553 36.1065 24.3003 36.1065 24.5533V26.8144C36.1065 27.2841 36.1668 27.745 36.2817 28.189C34.2317 31.3559 31.119 33.5535 27.5626 34.4378V26.9107ZM24.0001 5.62378C30.6348 5.62378 36.2509 10.0651 38.0338 16.1306L29.3967 14.0467C25.8662 13.195 22.1337 13.195 18.6035 14.0467L9.96641 16.1306C11.7492 10.0651 17.3653 5.62378 24.0001 5.62378ZM2.02174 25.7537L2.80042 22.9304C2.93326 22.449 3.16951 22.0078 3.48882 21.6349L3.70585 21.9796C3.79266 22.1174 3.91388 22.2303 4.0575 22.3071L7.13679 23.9518C7.83568 24.3251 8.67605 24.294 9.34111 23.9066L9.56189 23.9636C9.83095 24.033 10.0188 24.2755 10.0188 24.5533V26.8144C10.0188 27.7539 9.65807 28.642 9.00305 29.3154L8.13643 30.2062L3.24282 29.1738L2.34377 27.804C1.94665 27.1988 1.82928 26.4515 2.02174 25.7537ZM24.0001 38.6235C18.3189 38.6235 12.9557 35.9791 9.48295 31.5111L10.3469 30.6229C10.5026 30.4629 10.646 30.294 10.7795 30.1191C12.1473 31.9469 13.8874 33.486 15.8759 34.613C18.3411 36.0101 21.1504 36.7486 24.0002 36.7486C26.8503 36.7486 29.6601 36.0098 32.1256 34.6123C34.1136 33.4854 35.8533 31.9466 37.2208 30.1191C37.3543 30.2941 37.4976 30.463 37.6533 30.623L38.5181 31.5119C35.0491 35.9729 29.6574 38.6235 24.0001 38.6235Z" fill="url(#paint1_linear_6053_6028)"/>
<path d="M23.9993 1.875H24.0223C24.54 1.875 24.9598 1.45528 24.9598 0.9375C24.9598 0.419719 24.54 0 24.0223 0H23.9993C23.4815 0 23.0618 0.419719 23.0618 0.9375C23.0618 1.45528 23.4815 1.875 23.9993 1.875Z" fill="url(#paint2_linear_6053_6028)"/>
</g>
<defs>
<linearGradient id="paint0_linear_6053_6028" x1="0" y1="47.9985" x2="30.9016" y2="-14.7768" gradientUnits="userSpaceOnUse">
<stop stop-color="#5D3CF2"/>
<stop offset="1" stop-color="#FD5631"/>
</linearGradient>
<linearGradient id="paint1_linear_6053_6028" x1="0" y1="47.9985" x2="30.9016" y2="-14.7768" gradientUnits="userSpaceOnUse">
<stop stop-color="#5D3CF2"/>
<stop offset="1" stop-color="#FD5631"/>
</linearGradient>
<linearGradient id="paint2_linear_6053_6028" x1="0" y1="47.9985" x2="30.9016" y2="-14.7768" gradientUnits="userSpaceOnUse">
<stop stop-color="#5D3CF2"/>
<stop offset="1" stop-color="#FD5631"/>
</linearGradient>
<clipPath id="clip0_6053_6028">
<rect width="48" height="48" fill="white"/>
</clipPath>
</defs>
</svg>
