<svg width="18" height="20" viewBox="0 0 18 20" fill="none" xmlns="http://www.w3.org/2000/svg">
<path fill-rule="evenodd" clip-rule="evenodd" d="M12.2929 0.292893C12.6834 -0.0976309 13.3166 -0.0976312 13.7071 0.292893L17.7071 4.29289C17.8946 4.48043 18 4.73478 18 5C18 5.26522 17.8946 5.51957 17.7071 5.70711L13.7071 9.70711C13.3166 10.0976 12.6834 10.0976 12.2929 9.7071C11.9024 9.31658 11.9024 8.68342 12.2929 8.29289L15.5858 5L12.2929 1.70711C11.9024 1.31658 11.9024 0.683418 12.2929 0.292893Z" fill="black"/>
<path fill-rule="evenodd" clip-rule="evenodd" d="M6 4.99998C6 4.4477 6.44772 3.99998 7 3.99998H17C17.5523 3.99998 18 4.44771 18 5C18 5.55228 17.5523 5.99998 17 5.99998H7C6.44772 5.99998 6 5.55227 6 4.99998Z" fill="black"/>
<path fill-rule="evenodd" clip-rule="evenodd" d="M5.70711 10.2929C6.09763 10.6834 6.09763 11.3166 5.70711 11.7071L2.41421 15L5.70711 18.2929C6.09763 18.6834 6.09763 19.3166 5.70711 19.7071C5.31658 20.0976 4.68342 20.0976 4.29289 19.7071L0.292893 15.7071C0.105357 15.5196 0 15.2652 0 15C0 14.7348 0.105357 14.4804 0.292893 14.2929L4.29289 10.2929C4.68342 9.90235 5.31658 9.90235 5.70711 10.2929Z" fill="black"/>
<path fill-rule="evenodd" clip-rule="evenodd" d="M0 15C0 14.4477 0.447715 14 1 14H10C10.5523 14 11 14.4477 11 15C11 15.5523 10.5523 16 10 16H1C0.447715 16 0 15.5523 0 15Z" fill="black"/>
</svg>
