<svg width="20" height="20" viewBox="0 0 20 20" fill="none" xmlns="http://www.w3.org/2000/svg">
<g clip-path="url(#clip0_6071_2612)">
<path d="M17.945 5.9275C18.7583 5.35 19.4425 4.62917 20 3.79917V3.79833C19.2558 4.12417 18.4642 4.34083 17.6375 4.44583C18.4875 3.93833 19.1367 3.14083 19.4417 2.18C18.6492 2.6525 17.7742 2.98583 16.8417 3.1725C16.0892 2.37083 15.0167 1.875 13.8467 1.875C11.5767 1.875 9.74917 3.7175 9.74917 5.97583C9.74917 6.30083 9.77667 6.61333 9.84417 6.91083C6.43583 6.74417 3.41917 5.11083 1.3925 2.62167C1.03917 3.23583 0.830833 3.93833 0.830833 4.69417C0.830833 6.11417 1.56167 7.3725 2.6525 8.10167C1.99333 8.08917 1.3475 7.8975 0.8 7.59667V7.64167C0.8 9.63417 2.22083 11.2892 4.085 11.6708C3.75083 11.7625 3.3875 11.8058 3.01 11.8058C2.7475 11.8058 2.4825 11.7908 2.23417 11.7358C2.765 13.3592 4.27333 14.5533 6.065 14.5925C4.67 15.6833 2.89833 16.3408 0.980833 16.3408C0.645 16.3408 0.3225 16.3258 0 16.285C1.81667 17.4558 3.96833 18.125 6.29 18.125C13.5258 18.125 18.2417 12.0883 17.945 5.9275Z" fill="black"/>
</g>
<defs>
<clipPath id="clip0_6071_2612">
<rect width="20" height="20" fill="white"/>
</clipPath>
</defs>
</svg>
