<svg width="20" height="20" viewBox="0 0 20 20" fill="none" xmlns="http://www.w3.org/2000/svg">
<path fill-rule="evenodd" clip-rule="evenodd" d="M9.99981 3.33341C8.61909 3.33341 7.49981 4.4527 7.49981 5.83341C7.49981 7.21413 8.61909 8.33341 9.99981 8.33341C11.3805 8.33341 12.4998 7.21413 12.4998 5.83341C12.4998 4.4527 11.3805 3.33341 9.99981 3.33341ZM5.83314 5.83341C5.83314 3.53223 7.69862 1.66675 9.99981 1.66675C12.301 1.66675 14.1665 3.53223 14.1665 5.83341C14.1665 8.1346 12.301 10.0001 9.99981 10.0001C7.69862 10.0001 5.83314 8.1346 5.83314 5.83341Z" fill="black"/>
<path fill-rule="evenodd" clip-rule="evenodd" d="M8.33317 13.3334C7.67013 13.3334 7.03424 13.5968 6.5654 14.0656C6.09656 14.5345 5.83317 15.1704 5.83317 15.8334V17.5001C5.83317 17.9603 5.46007 18.3334 4.99984 18.3334C4.5396 18.3334 4.1665 17.9603 4.1665 17.5001V15.8334C4.1665 14.7283 4.60549 13.6685 5.38689 12.8871C6.16829 12.1057 7.2281 11.6667 8.33317 11.6667H11.6665C12.7716 11.6667 13.8314 12.1057 14.6128 12.8871C15.3942 13.6685 15.8332 14.7283 15.8332 15.8334V17.5001C15.8332 17.9603 15.4601 18.3334 14.9998 18.3334C14.5396 18.3334 14.1665 17.9603 14.1665 17.5001V15.8334C14.1665 15.1704 13.9031 14.5345 13.4343 14.0656C12.9654 13.5968 12.3295 13.3334 11.6665 13.3334H8.33317Z" fill="black"/>
</svg>
