<svg width="32" height="32" viewBox="0 0 32 32" fill="none" xmlns="http://www.w3.org/2000/svg">
<rect width="32" height="32" rx="16" fill="white"/>
<path fill-rule="evenodd" clip-rule="evenodd" d="M13.6145 12.015C13.2486 11.976 12.8787 12.0131 12.5279 12.1241C12.1771 12.235 11.8531 12.4174 11.5763 12.6597C11.2995 12.902 11.0759 13.1989 10.9195 13.5318C10.7632 13.8648 10.6774 14.2264 10.6678 14.5941C10.6581 14.9618 10.7246 15.3274 10.8632 15.6681C11.0019 16.0088 11.2095 16.3171 11.4732 16.5737L11.4774 16.5778L16.0057 21.0618L20.5251 16.5867C20.5382 16.5703 20.5547 16.5497 20.5736 16.5257C20.6273 16.4575 20.7004 16.3628 20.778 16.2564C20.9469 16.0247 21.0892 15.8018 21.1405 15.6746C21.2775 15.3345 21.3428 14.9698 21.3324 14.6033C21.322 14.2369 21.236 13.8764 21.0799 13.5447C20.9237 13.2129 20.7007 12.917 20.4249 12.6753C20.1491 12.4337 19.8263 12.2515 19.4768 12.1403C19.1273 12.0291 18.7587 11.9912 18.3938 12.029C18.029 12.0668 17.6759 12.1795 17.3567 12.36C17.0375 12.5405 16.7589 12.7849 16.5385 13.078C16.4122 13.246 16.214 13.3445 16.0039 13.3439C15.7937 13.3434 15.5961 13.2437 15.4707 13.075C15.2512 12.7798 14.973 12.5332 14.6536 12.3508C14.3341 12.1683 13.9803 12.054 13.6145 12.015ZM21.5149 17.4788C21.5168 17.4804 21.5169 17.4803 21.5169 17.4803L21.5195 17.4771L21.5255 17.4698L21.5467 17.4438C21.5646 17.4217 21.5899 17.3902 21.6206 17.3512C21.6818 17.2736 21.7655 17.1652 21.8554 17.0418C22.0216 16.8139 22.2571 16.471 22.3772 16.1729C22.5828 15.6626 22.6809 15.1154 22.6652 14.5654C22.6496 14.0155 22.5206 13.4747 22.2862 12.9769C22.0519 12.4791 21.7174 12.035 21.3035 11.6724C20.8897 11.3099 20.4055 11.0366 19.8812 10.8698C19.3568 10.7029 18.8037 10.6461 18.2564 10.7028C17.7091 10.7595 17.1794 10.9285 16.7005 11.1993C16.4522 11.3397 16.2203 11.5059 16.0085 11.6946C15.7964 11.5036 15.5639 11.3352 15.3148 11.1929C14.8355 10.9192 14.3047 10.7477 13.7559 10.6892C13.207 10.6306 12.652 10.6864 12.1258 10.8528C11.5995 11.0193 11.1134 11.2929 10.6981 11.6564C10.2828 12.0199 9.9473 12.4655 9.71268 12.965C9.47805 13.4646 9.34942 14.0073 9.33488 14.559C9.32035 15.1107 9.42022 15.6594 9.62822 16.1706C9.83584 16.6809 10.1467 17.1427 10.5412 17.5272L15.5361 22.4731L15.5366 22.4736C15.7964 22.7309 16.215 22.7309 16.4748 22.4737L21.4256 17.5714C21.4583 17.5446 21.4889 17.5141 21.5169 17.4803L21.5149 17.4788Z" fill="#FD5631"/>
</svg>
