<svg width="20" height="20" viewBox="0 0 20 20" fill="none" xmlns="http://www.w3.org/2000/svg">
<path fill-rule="evenodd" clip-rule="evenodd" d="M9.99984 3.33328C6.31794 3.33328 3.33317 6.31805 3.33317 9.99995C3.33317 13.6818 6.31794 16.6666 9.99984 16.6666C13.6817 16.6666 16.6665 13.6818 16.6665 9.99995C16.6665 6.31805 13.6817 3.33328 9.99984 3.33328ZM1.6665 9.99995C1.6665 5.39758 5.39746 1.66662 9.99984 1.66662C14.6022 1.66662 18.3332 5.39758 18.3332 9.99995C18.3332 14.6023 14.6022 18.3333 9.99984 18.3333C5.39746 18.3333 1.6665 14.6023 1.6665 9.99995Z" fill="black"/>
<path fill-rule="evenodd" clip-rule="evenodd" d="M2.1665 7.49995C2.1665 7.03971 2.5396 6.66662 2.99984 6.66662H16.9998C17.4601 6.66662 17.8332 7.03971 17.8332 7.49995C17.8332 7.96019 17.4601 8.33328 16.9998 8.33328H2.99984C2.5396 8.33328 2.1665 7.96019 2.1665 7.49995Z" fill="black"/>
<path fill-rule="evenodd" clip-rule="evenodd" d="M2.1665 12.5C2.1665 12.0397 2.5396 11.6666 2.99984 11.6666H16.9998C17.4601 11.6666 17.8332 12.0397 17.8332 12.5C17.8332 12.9602 17.4601 13.3333 16.9998 13.3333H2.99984C2.5396 13.3333 2.1665 12.9602 2.1665 12.5Z" fill="black"/>
<path fill-rule="evenodd" clip-rule="evenodd" d="M10.0243 1.79298C10.4148 2.03663 10.5338 2.55068 10.2901 2.94113C8.96884 5.05847 8.26834 7.50416 8.26834 9.99995C8.26834 12.4957 8.96884 14.9414 10.2901 17.0588C10.5338 17.4492 10.4148 17.9633 10.0243 18.2069C9.6339 18.4506 9.11985 18.3316 8.8762 17.9411C7.38974 15.5591 6.60168 12.8077 6.60168 9.99995C6.60168 7.19218 7.38974 4.44078 8.8762 2.05877C9.11985 1.66832 9.6339 1.54932 10.0243 1.79298Z" fill="black"/>
<path fill-rule="evenodd" clip-rule="evenodd" d="M9.97533 1.79298C10.3658 1.54932 10.8798 1.66832 11.1235 2.05877C12.6099 4.44078 13.398 7.19218 13.398 9.99995C13.398 12.8077 12.6099 15.5591 11.1235 17.9411C10.8798 18.3316 10.3658 18.4506 9.97533 18.2069C9.58488 17.9633 9.46588 17.4492 9.70953 17.0588C11.0308 14.9414 11.7313 12.4957 11.7313 9.99995C11.7313 7.50416 11.0308 5.05847 9.70953 2.94113C9.46588 2.55068 9.58488 2.03663 9.97533 1.79298Z" fill="black"/>
</svg>
